Saira-PARAMETRIC-JUN_OPSZ8.ufo
<glyph name="dollar" format="2">
  <advance width="537.54348"/>
  <unicode hex="0024"/>
  <outline>
    <contour>
      <point x="239.326" y="-8" type="line"/>
      <point x="302.674" y="-8" type="line"/>
      <point x="302.674" y="69.087" type="line"/>
      <point x="424.304" y="74.891"/>
      <point x="467.87" y="107.413"/>
      <point x="467.87" y="224.783" type="curve" smooth="yes"/>
      <point x="467.87" y="339.674"/>
      <point x="440.087" y="365.217"/>
      <point x="363.152" y="374.304" type="curve" smooth="yes"/>
      <point x="212.652" y="390.391" type="line" smooth="yes"/>
      <point x="160.717" y="396.391"/>
      <point x="150.239" y="402.5"/>
      <point x="150.239" y="466.848" type="curve" smooth="yes"/>
      <point x="150.239" y="544.783"/>
      <point x="194.304" y="547.413"/>
      <point x="275.413" y="547.413" type="curve" smooth="yes"/>
      <point x="323.783" y="547.413"/>
      <point x="387.413" y="542.957"/>
      <point x="439.326" y="536.043" type="curve"/>
      <point x="439.326" y="604.283" type="line"/>
      <point x="397.435" y="612.457"/>
      <point x="354.304" y="616.913"/>
      <point x="302.674" y="617.913" type="curve"/>
      <point x="302.674" y="696" type="line"/>
      <point x="239.326" y="696" type="line"/>
      <point x="239.326" y="617.37" type="line"/>
      <point x="129.5" y="611.022"/>
      <point x="69.13" y="582.239"/>
      <point x="69.13" y="463.109" type="curve" smooth="yes"/>
      <point x="69.13" y="373.913"/>
      <point x="89.957" y="329.609"/>
      <point x="183.304" y="318.435" type="curve" smooth="yes"/>
      <point x="323.457" y="302.348" type="line" smooth="yes"/>
      <point x="373.283" y="296.804"/>
      <point x="386.761" y="293.978"/>
      <point x="386.761" y="222.609" type="curve" smooth="yes"/>
      <point x="386.761" y="156.326"/>
      <point x="371.543" y="137.674"/>
      <point x="259.652" y="139.043" type="curve" smooth="yes"/>
      <point x="179.696" y="139.5"/>
      <point x="120.348" y="145.304"/>
      <point x="85.674" y="149.413" type="curve"/>
      <point x="85.674" y="81.174" type="line"/>
      <point x="126.217" y="74.543"/>
      <point x="185.217" y="70"/>
      <point x="239.326" y="68" type="curve"/>
    </contour>
  </outline>
</glyph>
<glyph name="six" format="2">
  <advance width="656.69565"/>
  <unicode hex="0036"/>
  <outline>
    <contour>
      <point x="346.739" y="-8" type="curve" smooth="yes"/>
      <point x="555.804" y="-8"/>
      <point x="596.152" y="41.978"/>
      <point x="596.152" y="217.609" type="curve" smooth="yes"/>
      <point x="596.152" y="385.065"/>
      <point x="531.174" y="411.13"/>
      <point x="362.217" y="411.13" type="curve" smooth="yes"/>
      <point x="232.522" y="411.13"/>
      <point x="189.783" y="384.413"/>
      <point x="169.5" y="360.761" type="curve"/>
      <point x="163.5" y="360.761" type="line"/>
      <point x="163.5" y="583.935"/>
      <point x="185.152" y="621.783"/>
      <point x="371.522" y="621.783" type="curve" smooth="yes"/>
      <point x="418.174" y="621.783"/>
      <point x="494.804" y="616.239"/>
      <point x="558.152" y="608.696" type="curve"/>
      <point x="558.152" y="678.196" type="line"/>
      <point x="490.152" y="688.37"/>
      <point x="405.63" y="696"/>
      <point x="353.739" y="696" type="curve" smooth="yes"/>
      <point x="209.109" y="696"/>
      <point x="135.565" y="672.37"/>
      <point x="101.391" y="578.978" type="curve" smooth="yes"/>
      <point x="81.587" y="525.891"/>
      <point x="76.413" y="447.348"/>
      <point x="76.413" y="336.717" type="curve" smooth="yes"/>
      <point x="76.413" y="217.304"/>
      <point x="81.674" y="138.957"/>
      <point x="100.739" y="92.978" type="curve" smooth="yes"/>
      <point x="135" y="3.457"/>
      <point x="209.37" y="-8"/>
    </contour>
    <contour>
      <point x="338.739" y="66.217" type="curve" smooth="yes"/>
      <point x="204.891" y="66.217"/>
      <point x="166.5" y="80.522"/>
      <point x="166.5" y="225.826" type="curve" smooth="yes"/>
      <point x="166.5" y="306.435"/>
      <point x="181.239" y="336.913"/>
      <point x="338.739" y="336.913" type="curve" smooth="yes"/>
      <point x="482.674" y="336.913"/>
      <point x="511.239" y="328"/>
      <point x="511.239" y="198.609" type="curve" smooth="yes"/>
      <point x="511.239" y="78.413"/>
      <point x="478.848" y="66.217"/>
    </contour>
  </outline>
</glyph>
<glyph name="nine" format="2">
  <advance width="656.69565"/>
  <unicode hex="0039"/>
  <outline>
    <contour>
      <point x="302.957" y="-8" type="curve" smooth="yes"/>
      <point x="442.152" y="-8"/>
      <point x="515.696" y="14"/>
      <point x="550.043" y="97.043" type="curve" smooth="yes"/>
      <point x="574.022" y="153.413"/>
      <point x="580.283" y="234.13"/>
      <point x="580.283" y="351.283" type="curve" smooth="yes"/>
      <point x="580.283" y="462"/>
      <point x="576.109" y="537.63"/>
      <point x="558.935" y="589.174" type="curve" smooth="yes"/>
      <point x="528.217" y="684"/>
      <point x="453.848" y="696"/>
      <point x="309.957" y="696" type="curve" smooth="yes"/>
      <point x="100.891" y="696"/>
      <point x="60.543" y="646.022"/>
      <point x="60.543" y="470.391" type="curve" smooth="yes"/>
      <point x="60.543" y="302.935"/>
      <point x="125.522" y="276.87"/>
      <point x="294.478" y="276.87" type="curve" smooth="yes"/>
      <point x="424.174" y="276.87"/>
      <point x="466.913" y="303.587"/>
      <point x="487.196" y="327.239" type="curve"/>
      <point x="493.196" y="327.239" type="line"/>
      <point x="493.196" y="104.065"/>
      <point x="471.543" y="66.217"/>
      <point x="285.174" y="66.217" type="curve" smooth="yes"/>
      <point x="237.609" y="66.217"/>
      <point x="160.978" y="71.761"/>
      <point x="98.543" y="79.304" type="curve"/>
      <point x="98.543" y="9.804" type="line"/>
      <point x="164.261" y="-0.37"/>
      <point x="249.696" y="-8"/>
    </contour>
    <contour>
      <point x="317.957" y="351.087" type="curve" smooth="yes"/>
      <point x="174.022" y="351.087"/>
      <point x="145.457" y="360"/>
      <point x="145.457" y="489.391" type="curve" smooth="yes"/>
      <point x="145.457" y="609.587"/>
      <point x="177.848" y="621.783"/>
      <point x="317.957" y="621.783" type="curve" smooth="yes"/>
      <point x="451.804" y="621.783"/>
      <point x="490.196" y="607.478"/>
      <point x="490.196" y="462.174" type="curve" smooth="yes"/>
      <point x="490.196" y="381.565"/>
      <point x="475.457" y="351.087"/>
    </contour>
  </outline>
</glyph>
<glyph name="equal" format="2">
  <advance width="540"/>
  <unicode hex="003D"/>
  <outline>
    <contour>
      <point x="70" y="319.609" type="line"/>
      <point x="470" y="319.609" type="line"/>
      <point x="470" y="385.848" type="line"/>
      <point x="70" y="385.848" type="line"/>
    </contour>
    <contour>
      <point x="70" y="119.609" type="line"/>
      <point x="470" y="119.609" type="line"/>
      <point x="470" y="185.848" type="line"/>
      <point x="70" y="185.848" type="line"/>
    </contour>
  </outline>
</glyph>
<glyph name="A" format="2">
  <advance width="676"/>
  <unicode hex="0041"/>
  <anchor x="338" y="0" name="bottom"/>
  <anchor x="608" y="10" name="ogonek"/>
  <anchor x="338" y="688" name="top"/>
  <outline>
    <contour>
      <point x="11" y="0" type="line"/>
      <point x="116" y="0" type="line"/>
      <point x="335" y="608" type="line"/>
      <point x="341" y="608" type="line"/>
      <point x="559" y="0" type="line"/>
      <point x="665" y="0" type="line"/>
      <point x="413" y="688" type="line"/>
      <point x="263" y="688" type="line"/>
    </contour>
    <contour>
      <point x="135" y="181" type="line"/>
      <point x="540" y="181" type="line"/>
      <point x="507" y="271" type="line"/>
      <point x="168" y="271" type="line"/>
    </contour>
  </outline>
</glyph>
<glyph name="B" format="2">
  <advance width="766"/>
  <unicode hex="0042"/>
  <guideline x="546" y="595" angle="61.5571" name=""/>
  <guideline x="546" y="399" angle="118.4429" name=""/>
  <guideline x="560" y="94" angle="120.2564" name=""/>
  <anchor x="369" y="0" name="bottom"/>
  <anchor x="369" y="688" name="top"/>
  <outline>
    <contour>
      <point x="110" y="0" type="line"/>
      <point x="403" y="0" type="line" smooth="yes"/>
      <point x="605" y="0"/>
      <point x="672" y="47"/>
      <point x="672" y="189" type="curve" smooth="yes"/>
      <point x="672" y="196" type="line" smooth="yes"/>
      <point x="672" y="331"/>
      <point x="605" y="375"/>
      <point x="403" y="375" type="curve" smooth="yes"/>
      <point x="190" y="375" type="line"/>
      <point x="190" y="308" type="line"/>
      <point x="409" y="308" type="line" smooth="yes"/>
      <point x="541" y="308"/>
      <point x="572" y="290"/>
      <point x="572" y="213" type="curve" smooth="yes"/>
      <point x="572" y="181" type="line" smooth="yes"/>
      <point x="572" y="107"/>
      <point x="538" y="87"/>
      <point x="409" y="87" type="curve" smooth="yes"/>
      <point x="164" y="87" type="line"/>
      <point x="210" y="43" type="line"/>
      <point x="210" y="645" type="line"/>
      <point x="164" y="601" type="line"/>
      <point x="395" y="601" type="line" smooth="yes"/>
      <point x="523" y="601"/>
      <point x="558" y="582"/>
      <point x="558" y="513" type="curve" smooth="yes"/>
      <point x="558" y="481" type="line" smooth="yes"/>
      <point x="558" y="410"/>
      <point x="525" y="392"/>
      <point x="395" y="392" type="curve" smooth="yes"/>
      <point x="190" y="392" type="line"/>
      <point x="190" y="325" type="line"/>
      <point x="389" y="325" type="line" smooth="yes"/>
      <point x="592" y="325"/>
      <point x="658" y="367"/>
      <point x="658" y="498" type="curve" smooth="yes"/>
      <point x="658" y="505" type="line" smooth="yes"/>
      <point x="658" y="643"/>
      <point x="592" y="688"/>
      <point x="389" y="688" type="curve" smooth="yes"/>
      <point x="110" y="688" type="line"/>
    </contour>
  </outline>
</glyph>
<glyph name="C" format="2">
  <advance width="669"/>
  <unicode hex="0043"/>
  <anchor x="313" y="0" name="bottom"/>
  <anchor x="313" y="688" name="top"/>
  <outline>
    <contour>
      <point x="392" y="-8" type="curve" smooth="yes"/>
      <point x="452" y="-8"/>
      <point x="523" y="-3"/>
      <point x="564" y="5" type="curve"/>
      <point x="564" y="89" type="line"/>
      <point x="525" y="83"/>
      <point x="457" y="79"/>
      <point x="392" y="79" type="curve" smooth="yes"/>
      <point x="198" y="79"/>
      <point x="184" y="96"/>
      <point x="184" y="310" type="curve" smooth="yes"/>
      <point x="184" y="378" type="line" smooth="yes"/>
      <point x="184" y="592"/>
      <point x="198" y="609"/>
      <point x="392" y="609" type="curve" smooth="yes"/>
      <point x="454" y="609"/>
      <point x="515" y="605"/>
      <point x="559" y="599" type="curve"/>
      <point x="559" y="681" type="line"/>
      <point x="520" y="690"/>
      <point x="449" y="696"/>
      <point x="392" y="696" type="curve" smooth="yes"/>
      <point x="131" y="696"/>
      <point x="84" y="644"/>
      <point x="84" y="349" type="curve" smooth="yes"/>
      <point x="84" y="339" type="line" smooth="yes"/>
      <point x="84" y="44"/>
      <point x="130" y="-8"/>
    </contour>
  </outline>
</glyph>
<glyph name="D" format="2">
  <advance width="746"/>
  <unicode hex="0044"/>
  <guideline x="555" y="593" angle="41.1859" name=""/>
  <anchor x="375" y="0" name="bottom"/>
  <anchor x="196" y="344" name="center"/>
  <anchor x="375" y="688" name="top"/>
  <outline>
    <contour>
      <point x="110" y="0" type="line"/>
      <point x="358" y="0" type="line" smooth="yes"/>
      <point x="604" y="0"/>
      <point x="662" y="64"/>
      <point x="662" y="339" type="curve" smooth="yes"/>
      <point x="662" y="349" type="line" smooth="yes"/>
      <point x="662" y="624"/>
      <point x="604" y="688"/>
      <point x="358" y="688" type="curve" smooth="yes"/>
      <point x="110" y="688" type="line"/>
    </contour>
    <contour>
      <point x="210" y="52" type="line"/>
      <point x="210" y="636" type="line"/>
      <point x="164" y="601" type="line"/>
      <point x="358" y="601" type="line" smooth="yes"/>
      <point x="531" y="601"/>
      <point x="562" y="566"/>
      <point x="562" y="377" type="curve" smooth="yes"/>
      <point x="562" y="311" type="line" smooth="yes"/>
      <point x="562" y="122"/>
      <point x="531" y="87"/>
      <point x="358" y="87" type="curve" smooth="yes"/>
      <point x="164" y="87" type="line"/>
    </contour>
  </outline>
</glyph>
<glyph name="E" format="2">
  <advance width="648"/>
  <unicode hex="0045"/>
  <anchor x="322" y="0" name="bottom"/>
  <anchor x="572" y="10" name="ogonek"/>
  <anchor x="322" y="688" name="top"/>
  <anchor x="30" y="688" name="topleft"/>
  <outline>
    <contour>
      <point x="168" y="391" type="line"/>
      <point x="168" y="305" type="line"/>
      <point x="546" y="305" type="line"/>
      <point x="546" y="391" type="line"/>
    </contour>
    <contour>
      <point x="209" y="45" type="line"/>
      <point x="209" y="643" type="line"/>
      <point x="168" y="601" type="line"/>
      <point x="593" y="601" type="line"/>
      <point x="593" y="688" type="line"/>
      <point x="110" y="688" type="line"/>
      <point x="110" y="0" type="line"/>
      <point x="593" y="0" type="line"/>
      <point x="593" y="87" type="line"/>
      <point x="168" y="87" type="line"/>
    </contour>
  </outline>
</glyph>
<glyph name="F" format="2">
  <advance width="626"/>
  <unicode hex="0046"/>
  <anchor x="334" y="0" name="bottom"/>
  <anchor x="334" y="688" name="top"/>
  <outline>
    <contour>
      <point x="172" y="378" type="line"/>
      <point x="172" y="291" type="line"/>
      <point x="535" y="291" type="line"/>
      <point x="535" y="378" type="line"/>
    </contour>
    <contour>
      <point x="209" y="0" type="line"/>
      <point x="209" y="643" type="line"/>
      <point x="172" y="601" type="line"/>
      <point x="582" y="601" type="line"/>
      <point x="582" y="688" type="line"/>
      <point x="110" y="688" type="line"/>
      <point x="110" y="0" type="line"/>
    </contour>
  </outline>
</glyph>
<glyph name="G" format="2">
  <advance width="745"/>
  <unicode hex="0047"/>
  <anchor x="371" y="0" name="bottom"/>
  <anchor x="371" y="688" name="top"/>
  <outline>
    <contour>
      <point x="428" y="-8" type="curve" smooth="yes"/>
      <point x="506" y="-8"/>
      <point x="591" y="5"/>
      <point x="640" y="25" type="curve"/>
      <point x="640" y="378" type="line"/>
      <point x="374" y="378" type="line"/>
      <point x="374" y="295" type="line"/>
      <point x="544" y="295" type="line"/>
      <point x="544" y="95" type="line"/>
      <point x="506" y="84"/>
      <point x="466" y="79"/>
      <point x="423" y="79" type="curve" smooth="yes"/>
      <point x="221" y="79"/>
      <point x="184" y="115"/>
      <point x="184" y="310" type="curve" smooth="yes"/>
      <point x="184" y="378" type="line" smooth="yes"/>
      <point x="184" y="575"/>
      <point x="220" y="609"/>
      <point x="424" y="609" type="curve" smooth="yes"/>
      <point x="504" y="609"/>
      <point x="579" y="605"/>
      <point x="635" y="599" type="curve"/>
      <point x="635" y="681" type="line"/>
      <point x="586" y="690"/>
      <point x="499" y="696"/>
      <point x="428" y="696" type="curve" smooth="yes"/>
      <point x="149" y="696"/>
      <point x="84" y="631"/>
      <point x="84" y="349" type="curve" smooth="yes"/>
      <point x="84" y="339" type="line" smooth="yes"/>
      <point x="84" y="57"/>
      <point x="149" y="-8"/>
    </contour>
  </outline>
</glyph>
<glyph name="H" format="2">
  <advance width="782"/>
  <unicode hex="0048"/>
  <anchor x="391" y="0" name="bottom"/>
  <anchor x="391" y="550" name="center"/>
  <anchor x="391" y="688" name="top"/>
  <anchor x="36" y="688" name="topleft"/>
  <outline>
    <contour>
      <point x="110" y="0" type="line"/>
      <point x="210" y="0" type="line"/>
      <point x="210" y="347" type="line"/>
      <point x="165" y="304" type="line"/>
      <point x="618" y="304" type="line"/>
      <point x="572" y="347" type="line"/>
      <point x="572" y="0" type="line"/>
      <point x="672" y="0" type="line"/>
      <point x="672" y="688" type="line"/>
      <point x="572" y="688" type="line"/>
      <point x="572" y="347" type="line"/>
      <point x="618" y="390" type="line"/>
      <point x="165" y="390" type="line"/>
      <point x="210" y="347" type="line"/>
      <point x="210" y="688" type="line"/>
      <point x="110" y="688" type="line"/>
    </contour>
  </outline>
</glyph>
<glyph name="I" format="2">
  <advance width="320"/>
  <unicode hex="0049"/>
  <anchor x="160" y="0" name="bottom"/>
  <anchor x="286" y="10" name="ogonek"/>
  <anchor x="160" y="688" name="top"/>
  <anchor x="23" y="688" name="topleft"/>
  <outline>
    <contour>
      <point x="110" y="0" type="line"/>
      <point x="210" y="0" type="line"/>
      <point x="210" y="688" type="line"/>
      <point x="110" y="688" type="line"/>
    </contour>
  </outline>
</glyph>
<glyph name="J" format="2">
  <advance width="354"/>
  <unicode hex="004A"/>
  <anchor x="177" y="0" name="bottom"/>
  <anchor x="177" y="688" name="top"/>
  <outline>
    <contour>
      <point x="244" y="688" type="line"/>
      <point x="144" y="688" type="line"/>
      <point x="144" y="157" type="line" smooth="yes"/>
      <point x="144" y="92"/>
      <point x="122" y="79"/>
      <point x="5" y="79" type="curve"/>
      <point x="5" y="-4" type="line"/>
      <point x="192" y="-4"/>
      <point x="244" y="32"/>
      <point x="244" y="164" type="curve" smooth="yes"/>
    </contour>
  </outline>
</glyph>
<glyph name="K" format="2">
  <advance width="709"/>
  <unicode hex="004B"/>
  <anchor x="392" y="0" name="bottom"/>
  <anchor x="392" y="688" name="top"/>
  <outline>
    <contour>
      <point x="205" y="307" type="line"/>
      <point x="349" y="307" type="line"/>
      <point x="577" y="0" type="line"/>
      <point x="698" y="0" type="line"/>
      <point x="436" y="350" type="line"/>
      <point x="688" y="688" type="line"/>
      <point x="567" y="688" type="line"/>
      <point x="349" y="393" type="line"/>
      <point x="205" y="393" type="line"/>
    </contour>
    <contour>
      <point x="110" y="0" type="line"/>
      <point x="210" y="0" type="line"/>
      <point x="210" y="688" type="line"/>
      <point x="110" y="688" type="line"/>
    </contour>
  </outline>
</glyph>
<glyph name="L" format="2">
  <advance width="594"/>
  <unicode hex="004C"/>
  <anchor x="301" y="0" name="bottom"/>
  <anchor x="301" y="344" name="center"/>
  <anchor x="301" y="688" name="top"/>
  <anchor x="565" y="688" name="topright"/>
  <outline>
    <contour>
      <point x="110" y="0" type="line"/>
      <point x="572" y="0" type="line"/>
      <point x="572" y="87" type="line"/>
      <point x="168" y="87" type="line"/>
      <point x="209" y="44" type="line"/>
      <point x="209" y="688" type="line"/>
      <point x="110" y="688" type="line"/>
    </contour>
  </outline>
</glyph>
<glyph name="M" format="2">
  <advance width="878"/>
  <unicode hex="004D"/>
  <outline>
    <contour>
      <point x="110" y="0" type="line"/>
      <point x="210" y="0" type="line"/>
      <point x="210" y="556" type="line"/>
      <point x="392" y="0" type="line"/>
      <point x="487" y="0" type="line"/>
      <point x="668" y="556" type="line"/>
      <point x="668" y="0" type="line"/>
      <point x="768" y="0" type="line"/>
      <point x="768" y="688" type="line"/>
      <point x="619" y="688" type="line"/>
      <point x="439" y="133" type="line"/>
      <point x="259" y="688" type="line"/>
      <point x="110" y="688" type="line"/>
    </contour>
  </outline>
</glyph>
<glyph name="N" format="2">
  <advance width="782"/>
  <unicode hex="004E"/>
  <anchor x="403" y="0" name="bottom"/>
  <anchor x="403" y="688" name="top"/>
  <outline>
    <contour>
      <point x="110" y="0" type="line"/>
      <point x="210" y="0" type="line"/>
      <point x="210" y="525" type="line"/>
      <point x="566" y="0" type="line"/>
      <point x="672" y="0" type="line"/>
      <point x="672" y="688" type="line"/>
      <point x="572" y="688" type="line"/>
      <point x="572" y="163" type="line"/>
      <point x="216" y="688" type="line"/>
      <point x="110" y="688" type="line"/>
    </contour>
  </outline>
</glyph>
<glyph name="O" format="2">
  <advance width="774"/>
  <unicode hex="004F"/>
  <anchor x="387" y="-2" name="bottom"/>
  <anchor x="387" y="344" name="center"/>
  <anchor x="686" y="10" name="ogonek"/>
  <anchor x="387" y="688" name="top"/>
  <anchor x="33" y="688" name="topleft"/>
  <anchor x="741" y="688" name="topright"/>
  <outline>
    <contour>
      <point x="387" y="-8" type="curve" smooth="yes"/>
      <point x="623" y="-8"/>
      <point x="690" y="68"/>
      <point x="690" y="339" type="curve" smooth="yes"/>
      <point x="690" y="349" type="line" smooth="yes"/>
      <point x="690" y="620"/>
      <point x="623" y="696"/>
      <point x="387" y="696" type="curve" smooth="yes"/>
      <point x="151" y="696"/>
      <point x="84" y="620"/>
      <point x="84" y="349" type="curve" smooth="yes"/>
      <point x="84" y="339" type="line" smooth="yes"/>
      <point x="84" y="68"/>
      <point x="151" y="-8"/>
    </contour>
    <contour>
      <point x="387" y="79" type="curve" smooth="yes"/>
      <point x="225" y="79"/>
      <point x="184" y="126"/>
      <point x="184" y="312" type="curve" smooth="yes"/>
      <point x="184" y="376" type="line" smooth="yes"/>
      <point x="184" y="562"/>
      <point x="225" y="609"/>
      <point x="387" y="609" type="curve" smooth="yes"/>
      <point x="549" y="609"/>
      <point x="590" y="562"/>
      <point x="590" y="376" type="curve" smooth="yes"/>
      <point x="590" y="312" type="line" smooth="yes"/>
      <point x="590" y="126"/>
      <point x="549" y="79"/>
    </contour>
  </outline>
</glyph>
<glyph name="P" format="2">
  <advance width="648"/>
  <unicode hex="0050"/>
  <anchor x="330" y="0" name="bottom"/>
  <anchor x="330" y="688" name="top"/>
  <outline>
    <contour>
      <point x="110" y="0" type="line"/>
      <point x="210" y="0" type="line"/>
      <point x="210" y="633" type="line"/>
      <point x="165" y="601" type="line"/>
      <point x="355" y="601" type="line" smooth="yes"/>
      <point x="487" y="601"/>
      <point x="515" y="580"/>
      <point x="515" y="480" type="curve" smooth="yes"/>
      <point x="515" y="448" type="line" smooth="yes"/>
      <point x="515" y="349"/>
      <point x="487" y="326"/>
      <point x="355" y="326" type="curve" smooth="yes"/>
      <point x="191" y="326" type="line"/>
      <point x="191" y="239" type="line"/>
      <point x="345" y="239" type="line" smooth="yes"/>
      <point x="551" y="239"/>
      <point x="615" y="293"/>
      <point x="615" y="460" type="curve" smooth="yes"/>
      <point x="615" y="467" type="line" smooth="yes"/>
      <point x="615" y="636"/>
      <point x="552" y="688"/>
      <point x="345" y="688" type="curve" smooth="yes"/>
      <point x="110" y="688" type="line"/>
    </contour>
  </outline>
</glyph>
<glyph name="R" format="2">
  <advance width="707"/>
  <unicode hex="0052"/>
  <guideline x="522" y="599" angle="54.4623" name=""/>
  <guideline x="522" y="348" angle="125.5377" name=""/>
  <anchor x="356" y="0" name="bottom"/>
  <anchor x="356" y="688" name="top"/>
  <outline>
    <contour>
      <point x="110" y="0" type="line"/>
      <point x="210" y="0" type="line"/>
      <point x="210" y="633" type="line"/>
      <point x="165" y="601" type="line"/>
      <point x="365" y="601" type="line" smooth="yes"/>
      <point x="506" y="601"/>
      <point x="525" y="588"/>
      <point x="525" y="489" type="curve" smooth="yes"/>
      <point x="525" y="458" type="line" smooth="yes"/>
      <point x="525" y="358"/>
      <point x="507" y="345"/>
      <point x="365" y="345" type="curve" smooth="yes"/>
      <point x="191" y="345" type="line"/>
      <point x="191" y="258" type="line"/>
      <point x="355" y="258" type="line" smooth="yes"/>
      <point x="571" y="258"/>
      <point x="625" y="301"/>
      <point x="625" y="469" type="curve" smooth="yes"/>
      <point x="625" y="476" type="line" smooth="yes"/>
      <point x="625" y="646"/>
      <point x="571" y="688"/>
      <point x="355" y="688" type="curve" smooth="yes"/>
      <point x="110" y="688" type="line"/>
    </contour>
    <contour>
      <point x="527" y="0" type="line"/>
      <point x="635" y="0" type="line"/>
      <point x="514" y="287" type="line"/>
      <point x="410" y="285" type="line"/>
    </contour>
  </outline>
</glyph>
<glyph name="S" format="2">
  <advance width="691"/>
  <unicode hex="0053"/>
  <anchor x="346" y="0" name="bottom"/>
  <anchor x="346" y="688" name="top"/>
  <outline>
    <contour>
      <point x="342" y="-8" type="curve" smooth="yes"/>
      <point x="534" y="-8"/>
      <point x="613" y="53"/>
      <point x="613" y="200" type="curve" smooth="yes"/>
      <point x="613" y="315"/>
      <point x="566" y="368"/>
      <point x="450" y="381" type="curve" smooth="yes"/>
      <point x="260" y="401" type="line" smooth="yes"/>
      <point x="194" y="410"/>
      <point x="178" y="428"/>
      <point x="178" y="493" type="curve" smooth="yes"/>
      <point x="178" y="586"/>
      <point x="211" y="609"/>
      <point x="345" y="609" type="curve" smooth="yes"/>
      <point x="420" y="609"/>
      <point x="515" y="602"/>
      <point x="585" y="592" type="curve"/>
      <point x="585" y="677" type="line"/>
      <point x="503" y="688"/>
      <point x="408" y="696"/>
      <point x="349" y="696" type="curve" smooth="yes"/>
      <point x="157" y="696"/>
      <point x="78" y="637"/>
      <point x="78" y="494" type="curve" smooth="yes"/>
      <point x="78" y="377"/>
      <point x="125" y="324"/>
      <point x="239" y="312" type="curve" smooth="yes"/>
      <point x="429" y="292" type="line" smooth="yes"/>
      <point x="496" y="283"/>
      <point x="513" y="264"/>
      <point x="513" y="199" type="curve" smooth="yes"/>
      <point x="513" y="103"/>
      <point x="479" y="79"/>
      <point x="344" y="79" type="curve" smooth="yes"/>
      <point x="263" y="79"/>
      <point x="160" y="86"/>
      <point x="84" y="96" type="curve"/>
      <point x="84" y="11" type="line"/>
      <point x="176" y="-1"/>
      <point x="278" y="-8"/>
    </contour>
  </outline>
</glyph>
<glyph name="T" format="2">
  <advance width="559"/>
  <unicode hex="0054"/>
  <anchor x="279" y="0" name="bottom"/>
  <anchor x="279" y="344" name="center"/>
  <anchor x="279" y="688" name="top"/>
  <outline>
    <contour>
      <point x="229" y="0" type="line"/>
      <point x="329" y="0" type="line"/>
      <point x="329" y="641" type="line"/>
      <point x="286" y="600" type="line"/>
      <point x="548" y="600" type="line"/>
      <point x="548" y="688" type="line"/>
      <point x="11" y="688" type="line"/>
      <point x="11" y="600" type="line"/>
      <point x="272" y="600" type="line"/>
      <point x="229" y="641" type="line"/>
    </contour>
  </outline>
</glyph>
<glyph name="U" format="2">
  <advance width="773"/>
  <unicode hex="0055"/>
  <anchor x="387" y="0" name="bottom"/>
  <anchor x="683" y="10" name="ogonek"/>
  <anchor x="387" y="688" name="top"/>
  <anchor x="737" y="688" name="topright"/>
  <outline>
    <contour>
      <point x="387" y="-8" type="curve" smooth="yes"/>
      <point x="619" y="-8"/>
      <point x="668" y="56"/>
      <point x="668" y="335" type="curve" smooth="yes"/>
      <point x="668" y="688" type="line"/>
      <point x="568" y="688" type="line"/>
      <point x="568" y="300" type="line" smooth="yes"/>
      <point x="568" y="105"/>
      <point x="551" y="80"/>
      <point x="387" y="80" type="curve" smooth="yes"/>
      <point x="221" y="80"/>
      <point x="205" y="106"/>
      <point x="205" y="310" type="curve" smooth="yes"/>
      <point x="205" y="688" type="line"/>
      <point x="105" y="688" type="line"/>
      <point x="105" y="345" type="line" smooth="yes"/>
      <point x="105" y="57"/>
      <point x="152" y="-8"/>
    </contour>
  </outline>
</glyph>
<glyph name="V" format="2">
  <advance width="628"/>
  <unicode hex="0056"/>
  <outline>
    <contour>
      <point x="242" y="0" type="line"/>
      <point x="385" y="0" type="line"/>
      <point x="617" y="688" type="line"/>
      <point x="513" y="688" type="line"/>
      <point x="314" y="86" type="line"/>
      <point x="114" y="688" type="line"/>
      <point x="11" y="688" type="line"/>
    </contour>
  </outline>
</glyph>
<glyph name="W" format="2">
  <advance width="838"/>
  <unicode hex="0057"/>
  <outline>
    <contour>
      <point x="144" y="0" type="line"/>
      <point x="284" y="0" type="line"/>
      <point x="419" y="561" type="line"/>
      <point x="554" y="0" type="line"/>
      <point x="694" y="0" type="line"/>
      <point x="827" y="688" type="line"/>
      <point x="728" y="688" type="line"/>
      <point x="620" y="126" type="line"/>
      <point x="483" y="688" type="line"/>
      <point x="355" y="688" type="line"/>
      <point x="218" y="126" type="line"/>
      <point x="110" y="688" type="line"/>
      <point x="11" y="688" type="line"/>
    </contour>
  </outline>
</glyph>
<glyph name="X" format="2">
  <advance width="638"/>
  <unicode hex="0058"/>
  <anchor x="339" y="0" name="bottom"/>
  <anchor x="339" y="510" name="top"/>
  <outline>
    <contour>
      <point x="496" y="0" type="line"/>
      <point x="616" y="0" type="line"/>
      <point x="152" y="688" type="line"/>
      <point x="32" y="688" type="line"/>
    </contour>
    <contour>
      <point x="22" y="0" type="line"/>
      <point x="142" y="0" type="line"/>
      <point x="606" y="688" type="line"/>
      <point x="486" y="688" type="line"/>
    </contour>
  </outline>
</glyph>
<glyph name="Y" format="2">
  <advance width="607"/>
  <unicode hex="0059"/>
  <anchor x="340" y="0" name="bottom"/>
  <anchor x="340" y="688" name="top"/>
  <anchor x="42" y="688" name="topleft"/>
  <outline>
    <contour>
      <point x="253" y="0" type="line"/>
      <point x="353" y="0" type="line"/>
      <point x="353" y="299" type="line"/>
      <point x="334" y="233" type="line"/>
      <point x="596" y="688" type="line"/>
      <point x="482" y="688" type="line"/>
      <point x="302" y="362" type="line"/>
      <point x="123" y="688" type="line"/>
      <point x="11" y="688" type="line"/>
      <point x="272" y="233" type="line"/>
      <point x="253" y="299" type="line"/>
    </contour>
  </outline>
</glyph>
<glyph name="Z" format="2">
  <advance width="621"/>
  <unicode hex="005A"/>
  <anchor x="286" y="0" name="bottom"/>
  <anchor x="286" y="344" name="center"/>
  <anchor x="286" y="688" name="top"/>
  <outline>
    <contour>
      <point x="55" y="0" type="line"/>
      <point x="566" y="0" type="line"/>
      <point x="566" y="87" type="line"/>
      <point x="188" y="87" type="line"/>
      <point x="560" y="611" type="line"/>
      <point x="560" y="688" type="line"/>
      <point x="67" y="688" type="line"/>
      <point x="67" y="601" type="line"/>
      <point x="427" y="601" type="line"/>
      <point x="55" y="77" type="line"/>
    </contour>
  </outline>
</glyph>
<glyph name="a" format="2">
  <advance width="650"/>
  <unicode hex="0061"/>
  <anchor x="324" y="0" name="bottom"/>
  <anchor x="574" y="11" name="ogonek"/>
  <anchor x="324" y="546" name="top"/>
  <outline>
    <contour>
      <point x="262" y="-9" type="curve" smooth="yes"/>
      <point x="363" y="-9"/>
      <point x="421" y="18"/>
      <point x="447" y="78" type="curve"/>
      <point x="451" y="78" type="line"/>
      <point x="461" y="0" type="line"/>
      <point x="545" y="0" type="line"/>
      <point x="545" y="277" type="line" smooth="yes"/>
      <point x="545" y="491"/>
      <point x="488" y="554"/>
      <point x="294" y="554" type="curve" smooth="yes"/>
      <point x="233" y="554"/>
      <point x="166" y="549"/>
      <point x="97" y="538" type="curve"/>
      <point x="97" y="460" type="line"/>
      <point x="148" y="468"/>
      <point x="226" y="474"/>
      <point x="284" y="474" type="curve" smooth="yes"/>
      <point x="418" y="474"/>
      <point x="448" y="442"/>
      <point x="448" y="298" type="curve" smooth="yes"/>
      <point x="448" y="261" type="line" smooth="yes"/>
      <point x="448" y="117"/>
      <point x="409" y="72"/>
      <point x="287" y="72" type="curve" smooth="yes"/>
      <point x="197" y="72"/>
      <point x="166" y="95"/>
      <point x="166" y="161" type="curve" smooth="yes"/>
      <point x="166" y="226"/>
      <point x="197" y="249"/>
      <point x="286" y="249" type="curve" smooth="yes"/>
      <point x="465" y="249" type="line"/>
      <point x="465" y="328" type="line"/>
      <point x="272" y="328" type="line" smooth="yes"/>
      <point x="133" y="328"/>
      <point x="69" y="274"/>
      <point x="69" y="155" type="curve" smooth="yes"/>
      <point x="69" y="41"/>
      <point x="127" y="-9"/>
    </contour>
  </outline>
</glyph>
<glyph name="b" format="2">
  <advance width="688"/>
  <unicode hex="0062"/>
  <anchor x="345" y="0" name="bottom"/>
  <anchor x="179" y="636" name="center"/>
  <anchor x="345" y="546" name="top"/>
  <outline>
    <contour>
      <point x="398" y="-9" type="curve" smooth="yes"/>
      <point x="553" y="-9"/>
      <point x="610" y="65"/>
      <point x="611" y="269" type="curve" smooth="yes"/>
      <point x="611" y="277" type="line" smooth="yes"/>
      <point x="610" y="479"/>
      <point x="552" y="554"/>
      <point x="398" y="554" type="curve" smooth="yes"/>
      <point x="311" y="554"/>
      <point x="247" y="524"/>
      <point x="213" y="468" type="curve"/>
      <point x="208" y="468" type="line"/>
      <point x="208" y="743" type="line"/>
      <point x="110" y="743" type="line"/>
      <point x="110" y="0" type="line"/>
      <point x="198" y="0" type="line"/>
      <point x="208" y="77" type="line"/>
      <point x="213" y="77" type="line"/>
      <point x="247" y="19"/>
      <point x="307" y="-9"/>
    </contour>
    <contour>
      <point x="371" y="73" type="curve" smooth="yes"/>
      <point x="244" y="74"/>
      <point x="208" y="116"/>
      <point x="208" y="262" type="curve" smooth="yes"/>
      <point x="208" y="284" type="line" smooth="yes"/>
      <point x="208" y="431"/>
      <point x="244" y="472"/>
      <point x="371" y="472" type="curve" smooth="yes"/>
      <point x="482" y="472"/>
      <point x="513" y="434"/>
      <point x="513" y="297" type="curve" smooth="yes"/>
      <point x="513" y="248" type="line" smooth="yes"/>
      <point x="513" y="112"/>
      <point x="482" y="74"/>
    </contour>
  </outline>
</glyph>
<glyph name="c" format="2">
  <advance width="522"/>
  <unicode hex="0063"/>
  <anchor x="260" y="0" name="bottom"/>
  <anchor x="260" y="546" name="top"/>
  <outline>
    <contour>
      <point x="323" y="-9" type="curve" smooth="yes"/>
      <point x="377" y="-9"/>
      <point x="438" y="-2"/>
      <point x="476" y="7" type="curve"/>
      <point x="476" y="87" type="line"/>
      <point x="436" y="79"/>
      <point x="370" y="74"/>
      <point x="318" y="73" type="curve" smooth="yes"/>
      <point x="205" y="74"/>
      <point x="174" y="112"/>
      <point x="174" y="248" type="curve" smooth="yes"/>
      <point x="174" y="298" type="line" smooth="yes"/>
      <point x="174" y="434"/>
      <point x="205" y="472"/>
      <point x="318" y="472" type="curve" smooth="yes"/>
      <point x="368" y="472"/>
      <point x="432" y="467"/>
      <point x="471" y="458" type="curve"/>
      <point x="471" y="538" type="line"/>
      <point x="434" y="548"/>
      <point x="375" y="554"/>
      <point x="323" y="554" type="curve" smooth="yes"/>
      <point x="139" y="554"/>
      <point x="77" y="485"/>
      <point x="77" y="277" type="curve" smooth="yes"/>
      <point x="77" y="269" type="line" smooth="yes"/>
      <point x="77" y="61"/>
      <point x="139" y="-9"/>
    </contour>
  </outline>
</glyph>
<glyph name="d" format="2">
  <advance width="688"/>
  <unicode hex="0064"/>
  <anchor x="310" y="0" name="bottom"/>
  <anchor x="464" y="594" name="center"/>
  <anchor x="310" y="510" name="top"/>
  <anchor x="519" y="743" name="topright"/>
  <outline>
    <contour>
      <point x="290" y="-9" type="curve" smooth="yes"/>
      <point x="381" y="-9"/>
      <point x="441" y="19"/>
      <point x="475" y="77" type="curve"/>
      <point x="480" y="77" type="line"/>
      <point x="490" y="0" type="line"/>
      <point x="578" y="0" type="line"/>
      <point x="578" y="743" type="line"/>
      <point x="480" y="743" type="line"/>
      <point x="480" y="468" type="line"/>
      <point x="475" y="468" type="line"/>
      <point x="441" y="524"/>
      <point x="377" y="554"/>
      <point x="290" y="554" type="curve" smooth="yes"/>
      <point x="136" y="554"/>
      <point x="78" y="479"/>
      <point x="77" y="277" type="curve" smooth="yes"/>
      <point x="77" y="269" type="line" smooth="yes"/>
      <point x="78" y="65"/>
      <point x="135" y="-9"/>
    </contour>
    <contour>
      <point x="317" y="73" type="curve" smooth="yes"/>
      <point x="206" y="74"/>
      <point x="175" y="112"/>
      <point x="175" y="248" type="curve" smooth="yes"/>
      <point x="175" y="297" type="line" smooth="yes"/>
      <point x="175" y="434"/>
      <point x="206" y="472"/>
      <point x="317" y="472" type="curve" smooth="yes"/>
      <point x="444" y="472"/>
      <point x="480" y="431"/>
      <point x="480" y="284" type="curve" smooth="yes"/>
      <point x="480" y="262" type="line" smooth="yes"/>
      <point x="480" y="116"/>
      <point x="444" y="74"/>
    </contour>
  </outline>
</glyph>
<glyph name="e" format="2">
  <advance width="628"/>
  <unicode hex="0065"/>
  <anchor x="314" y="0" name="bottom"/>
  <anchor x="556" y="11" name="ogonek"/>
  <anchor x="314" y="546" name="top"/>
  <outline>
    <contour>
      <point x="321" y="-9" type="curve" smooth="yes"/>
      <point x="400" y="-9"/>
      <point x="494" y="0"/>
      <point x="545" y="13" type="curve"/>
      <point x="545" y="91" type="line"/>
      <point x="487" y="79"/>
      <point x="396" y="72"/>
      <point x="326" y="72" type="curve" smooth="yes"/>
      <point x="195" y="72"/>
      <point x="174" y="96"/>
      <point x="174" y="248" type="curve" smooth="yes"/>
      <point x="174" y="298" type="line" smooth="yes"/>
      <point x="174" y="450"/>
      <point x="194" y="474"/>
      <point x="321" y="474" type="curve" smooth="yes"/>
      <point x="442" y="474"/>
      <point x="462" y="450"/>
      <point x="462" y="298" type="curve" smooth="yes"/>
      <point x="462" y="269" type="line"/>
      <point x="507" y="308" type="line"/>
      <point x="129" y="308" type="line"/>
      <point x="129" y="229" type="line"/>
      <point x="559" y="229" type="line"/>
      <point x="559" y="277" type="line" smooth="yes"/>
      <point x="558" y="488"/>
      <point x="501" y="554"/>
      <point x="321" y="554" type="curve" smooth="yes"/>
      <point x="136" y="554"/>
      <point x="77" y="488"/>
      <point x="77" y="277" type="curve" smooth="yes"/>
      <point x="77" y="269" type="line" smooth="yes"/>
      <point x="77" y="58"/>
      <point x="136" y="-9"/>
    </contour>
  </outline>
</glyph>
<glyph name="f" format="2">
  <advance width="380"/>
  <unicode hex="0066"/>
  <anchor x="200" y="0" name="bottom"/>
  <anchor x="200" y="795" name="top"/>
  <outline>
    <contour>
      <point x="134" y="0" type="line"/>
      <point x="232" y="0" type="line"/>
      <point x="232" y="580" type="line" smooth="yes"/>
      <point x="232" y="648"/>
      <point x="255" y="661"/>
      <point x="375" y="661" type="curve"/>
      <point x="375" y="743" type="line"/>
      <point x="187" y="743"/>
      <point x="134" y="706"/>
      <point x="134" y="572" type="curve" smooth="yes"/>
    </contour>
    <contour>
      <point x="22" y="464" type="line"/>
      <point x="157" y="464" type="line"/>
      <point x="157" y="546" type="line"/>
      <point x="22" y="546" type="line"/>
    </contour>
    <contour>
      <point x="210" y="464" type="line"/>
      <point x="375" y="464" type="line"/>
      <point x="375" y="546" type="line"/>
      <point x="210" y="546" type="line"/>
    </contour>
  </outline>
</glyph>
<glyph name="g" format="2">
  <advance width="686"/>
  <unicode hex="0067"/>
  <anchor x="349" y="-214" name="bottom"/>
  <anchor x="508" y="-90" name="center"/>
  <anchor x="349" y="546" name="top"/>
  <outline>
    <contour>
      <point x="334" y="-224" type="curve" smooth="yes"/>
      <point x="540" y="-225"/>
      <point x="576" y="-182"/>
      <point x="576" y="53" type="curve" smooth="yes"/>
      <point x="576" y="546" type="line"/>
      <point x="489" y="546" type="line"/>
      <point x="479" y="468" type="line"/>
      <point x="475" y="468" type="line"/>
      <point x="448" y="528"/>
      <point x="387" y="554"/>
      <point x="280" y="554" type="curve" smooth="yes"/>
      <point x="132" y="554"/>
      <point x="77" y="477"/>
      <point x="77" y="277" type="curve" smooth="yes"/>
      <point x="77" y="269" type="line" smooth="yes"/>
      <point x="77" y="67"/>
      <point x="130" y="-9"/>
      <point x="280" y="-9" type="curve" smooth="yes"/>
      <point x="387" y="-9"/>
      <point x="448" y="18"/>
      <point x="475" y="77" type="curve"/>
      <point x="479" y="77" type="line"/>
      <point x="479" y="32" type="line" smooth="yes"/>
      <point x="479" y="-132"/>
      <point x="469" y="-143"/>
      <point x="334" y="-144" type="curve" smooth="yes"/>
      <point x="255" y="-143"/>
      <point x="190" y="-139"/>
      <point x="128" y="-130" type="curve"/>
      <point x="128" y="-208" type="line"/>
      <point x="205" y="-219"/>
      <point x="270" y="-225"/>
    </contour>
    <contour>
      <point x="305" y="73" type="curve" smooth="yes"/>
      <point x="212" y="73"/>
      <point x="174" y="116"/>
      <point x="174" y="219" type="curve" smooth="yes"/>
      <point x="174" y="326" type="line" smooth="yes"/>
      <point x="174" y="430"/>
      <point x="211" y="472"/>
      <point x="305" y="472" type="curve" smooth="yes"/>
      <point x="448" y="472"/>
      <point x="479" y="439"/>
      <point x="479" y="284" type="curve" smooth="yes"/>
      <point x="479" y="262" type="line" smooth="yes"/>
      <point x="479" y="107"/>
      <point x="448" y="74"/>
    </contour>
  </outline>
</glyph>
<glyph name="h" format="2">
  <advance width="694"/>
  <unicode hex="0068"/>
  <anchor x="347" y="0" name="bottom"/>
  <anchor x="347" y="546" name="top"/>
  <outline>
    <contour>
      <point x="110" y="0" type="line"/>
      <point x="208" y="0" type="line"/>
      <point x="208" y="277" type="line" smooth="yes"/>
      <point x="208" y="415"/>
      <point x="254" y="472"/>
      <point x="365" y="472" type="curve" smooth="yes"/>
      <point x="458" y="472"/>
      <point x="491" y="431"/>
      <point x="491" y="318" type="curve" smooth="yes"/>
      <point x="491" y="0" type="line"/>
      <point x="589" y="0" type="line"/>
      <point x="589" y="332" type="line" smooth="yes"/>
      <point x="589" y="489"/>
      <point x="532" y="554"/>
      <point x="393" y="554" type="curve" smooth="yes"/>
      <point x="296" y="554"/>
      <point x="232" y="524"/>
      <point x="208" y="467" type="curve"/>
      <point x="208" y="743" type="line"/>
      <point x="110" y="743" type="line"/>
    </contour>
  </outline>
</glyph>
<glyph name="i" format="2">
  <advance width="316"/>
  <unicode hex="0069"/>
  <anchor x="157" y="0" name="bottom"/>
  <anchor x="206" y="0" name="ogonek"/>
  <anchor x="158" y="756" name="top"/>
  <outline>
    <contour>
      <point x="110" y="0" type="line"/>
      <point x="206" y="0" type="line"/>
      <point x="206" y="550" type="line"/>
      <point x="110" y="550" type="line"/>
    </contour>
    <contour>
      <point x="114" y="668" type="line"/>
      <point x="202" y="668" type="line"/>
      <point x="202" y="756" type="line"/>
      <point x="114" y="756" type="line"/>
    </contour>
  </outline>
</glyph>
<glyph name="j" format="2">
  <advance width="318"/>
  <unicode hex="006A"/>
  <anchor x="159" y="-200" name="bottom"/>
  <anchor x="159" y="716" name="top"/>
  <outline>
    <contour>
      <point x="208" y="546" type="line"/>
      <point x="110" y="546" type="line"/>
      <point x="110" y="-37" type="line" smooth="yes"/>
      <point x="110" y="-105"/>
      <point x="87" y="-118"/>
      <point x="-33" y="-118" type="curve"/>
      <point x="-33" y="-200" type="line"/>
      <point x="155" y="-200"/>
      <point x="208" y="-163"/>
      <point x="208" y="-29" type="curve" smooth="yes"/>
    </contour>
    <contour>
      <point x="115" y="628" type="line"/>
      <point x="203" y="628" type="line"/>
      <point x="203" y="716" type="line"/>
      <point x="115" y="716" type="line"/>
    </contour>
  </outline>
</glyph>
<glyph name="k" format="2">
  <advance width="627"/>
  <unicode hex="006B"/>
  <anchor x="338" y="0" name="bottom"/>
  <anchor x="338" y="546" name="top"/>
  <outline>
    <contour>
      <point x="208" y="237" type="line"/>
      <point x="342" y="237" type="line"/>
      <point x="497" y="0" type="line"/>
      <point x="610" y="0" type="line"/>
      <point x="429" y="278" type="line"/>
      <point x="607" y="546" type="line"/>
      <point x="493" y="546" type="line"/>
      <point x="342" y="319" type="line"/>
      <point x="208" y="319" type="line"/>
    </contour>
    <contour>
      <point x="110" y="0" type="line"/>
      <point x="208" y="0" type="line"/>
      <point x="208" y="743" type="line"/>
      <point x="110" y="743" type="line"/>
    </contour>
  </outline>
</glyph>
<glyph name="l" format="2">
  <advance width="318"/>
  <unicode hex="006C"/>
  <anchor x="159" y="0" name="bottom"/>
  <anchor x="159" y="372" name="center"/>
  <anchor x="159" y="743" name="top"/>
  <anchor x="200" y="743" name="topright"/>
  <outline>
    <contour>
      <point x="110" y="0" type="line"/>
      <point x="208" y="0" type="line"/>
      <point x="208" y="743" type="line"/>
      <point x="110" y="743" type="line"/>
    </contour>
  </outline>
</glyph>
<glyph name="m" format="2">
  <advance width="1075"/>
  <unicode hex="006D"/>
  <anchor x="348" y="0" name="bottom"/>
  <anchor x="348" y="546" name="top"/>
  <outline>
    <contour>
      <point x="110" y="0" type="line"/>
      <point x="208" y="0" type="line"/>
      <point x="208" y="274" type="line" smooth="yes"/>
      <point x="208" y="416"/>
      <point x="254" y="472"/>
      <point x="370" y="472" type="curve" smooth="yes"/>
      <point x="460" y="472"/>
      <point x="491" y="432"/>
      <point x="491" y="317" type="curve" smooth="yes"/>
      <point x="491" y="0" type="line"/>
      <point x="589" y="0" type="line"/>
      <point x="589" y="274" type="line" smooth="yes"/>
      <point x="589" y="416"/>
      <point x="635" y="472"/>
      <point x="751" y="472" type="curve" smooth="yes"/>
      <point x="840" y="472"/>
      <point x="871" y="432"/>
      <point x="872" y="317" type="curve" smooth="yes"/>
      <point x="872" y="0" type="line"/>
      <point x="970" y="0" type="line"/>
      <point x="970" y="332" type="line" smooth="yes"/>
      <point x="970" y="491"/>
      <point x="915" y="554"/>
      <point x="779" y="554" type="curve" smooth="yes"/>
      <point x="676" y="554"/>
      <point x="610" y="525"/>
      <point x="578" y="468" type="curve"/>
      <point x="574" y="468" type="line"/>
      <point x="552" y="526"/>
      <point x="496" y="554"/>
      <point x="398" y="554" type="curve" smooth="yes"/>
      <point x="298" y="554"/>
      <point x="234" y="525"/>
      <point x="210" y="468" type="curve"/>
      <point x="205" y="468" type="line"/>
      <point x="196" y="546" type="line"/>
      <point x="110" y="546" type="line"/>
    </contour>
  </outline>
</glyph>
<glyph name="n" format="2">
  <advance width="694"/>
  <unicode hex="006E"/>
  <anchor x="347" y="0" name="bottom"/>
  <anchor x="347" y="546" name="top"/>
  <outline>
    <contour>
      <point x="110" y="0" type="line"/>
      <point x="208" y="0" type="line"/>
      <point x="208" y="277" type="line" smooth="yes"/>
      <point x="208" y="415"/>
      <point x="254" y="472"/>
      <point x="365" y="472" type="curve" smooth="yes"/>
      <point x="458" y="472"/>
      <point x="491" y="431"/>
      <point x="491" y="318" type="curve" smooth="yes"/>
      <point x="491" y="0" type="line"/>
      <point x="589" y="0" type="line"/>
      <point x="589" y="332" type="line" smooth="yes"/>
      <point x="589" y="489"/>
      <point x="532" y="554"/>
      <point x="393" y="554" type="curve" smooth="yes"/>
      <point x="297" y="554"/>
      <point x="234" y="524"/>
      <point x="210" y="467" type="curve"/>
      <point x="205" y="467" type="line"/>
      <point x="196" y="546" type="line"/>
      <point x="110" y="546" type="line"/>
    </contour>
  </outline>
</glyph>
<glyph name="p" format="2">
  <advance width="688"/>
  <unicode hex="0070"/>
  <anchor x="314" y="0" name="bottom"/>
  <anchor x="179" y="-126" name="center"/>
  <anchor x="314" y="510" name="top"/>
  <outline>
    <contour>
      <point x="110" y="-200" type="line"/>
      <point x="208" y="-200" type="line"/>
      <point x="208" y="77" type="line"/>
      <point x="213" y="77" type="line"/>
      <point x="247" y="21"/>
      <point x="311" y="-9"/>
      <point x="398" y="-9" type="curve" smooth="yes"/>
      <point x="556" y="-9"/>
      <point x="610" y="61"/>
      <point x="611" y="268" type="curve" smooth="yes"/>
      <point x="611" y="276" type="line" smooth="yes"/>
      <point x="610" y="482"/>
      <point x="555" y="554"/>
      <point x="398" y="554" type="curve" smooth="yes"/>
      <point x="307" y="554"/>
      <point x="247" y="526"/>
      <point x="213" y="468" type="curve"/>
      <point x="208" y="468" type="line"/>
      <point x="198" y="545" type="line"/>
      <point x="110" y="545" type="line"/>
    </contour>
    <contour>
      <point x="371" y="73" type="curve" smooth="yes"/>
      <point x="244" y="73"/>
      <point x="208" y="114"/>
      <point x="208" y="261" type="curve" smooth="yes"/>
      <point x="208" y="283" type="line" smooth="yes"/>
      <point x="208" y="429"/>
      <point x="244" y="471"/>
      <point x="371" y="472" type="curve" smooth="yes"/>
      <point x="482" y="471"/>
      <point x="513" y="433"/>
      <point x="513" y="297" type="curve" smooth="yes"/>
      <point x="513" y="248" type="line" smooth="yes"/>
      <point x="513" y="111"/>
      <point x="482" y="73"/>
    </contour>
  </outline>
</glyph>
<glyph name="q" format="2">
  <advance width="688"/>
  <unicode hex="0071"/>
  <anchor x="310" y="0" name="bottom"/>
  <anchor x="509" y="-126" name="center"/>
  <anchor x="310" y="510" name="top"/>
  <outline>
    <contour>
      <point x="480" y="-199" type="line"/>
      <point x="578" y="-199" type="line"/>
      <point x="578" y="545" type="line"/>
      <point x="490" y="545" type="line"/>
      <point x="480" y="468" type="line"/>
      <point x="475" y="468" type="line"/>
      <point x="441" y="526"/>
      <point x="381" y="554"/>
      <point x="290" y="554" type="curve" smooth="yes"/>
      <point x="133" y="554"/>
      <point x="78" y="482"/>
      <point x="77" y="276" type="curve" smooth="yes"/>
      <point x="77" y="268" type="line" smooth="yes"/>
      <point x="78" y="61"/>
      <point x="132" y="-9"/>
      <point x="290" y="-9" type="curve" smooth="yes"/>
      <point x="377" y="-9"/>
      <point x="441" y="21"/>
      <point x="475" y="77" type="curve"/>
      <point x="480" y="77" type="line"/>
    </contour>
    <contour>
      <point x="317" y="73" type="curve" smooth="yes"/>
      <point x="206" y="73"/>
      <point x="175" y="111"/>
      <point x="175" y="248" type="curve" smooth="yes"/>
      <point x="175" y="297" type="line" smooth="yes"/>
      <point x="175" y="433"/>
      <point x="206" y="471"/>
      <point x="317" y="472" type="curve" smooth="yes"/>
      <point x="444" y="471"/>
      <point x="480" y="429"/>
      <point x="480" y="283" type="curve" smooth="yes"/>
      <point x="480" y="261" type="line" smooth="yes"/>
      <point x="480" y="114"/>
      <point x="444" y="73"/>
    </contour>
  </outline>
</glyph>
<glyph name="r" format="2">
  <advance width="444"/>
  <unicode hex="0072"/>
  <anchor x="225" y="0" name="bottom"/>
  <anchor x="225" y="546" name="top"/>
  <outline>
    <contour>
      <point x="110" y="0" type="line"/>
      <point x="208" y="0" type="line"/>
      <point x="208" y="274" type="line" smooth="yes"/>
      <point x="208" y="435"/>
      <point x="240" y="472"/>
      <point x="386" y="472" type="curve" smooth="yes"/>
      <point x="413" y="472" type="line"/>
      <point x="413" y="554" type="line"/>
      <point x="300" y="554"/>
      <point x="238" y="526"/>
      <point x="210" y="468" type="curve"/>
      <point x="205" y="468" type="line"/>
      <point x="196" y="546" type="line"/>
      <point x="110" y="546" type="line"/>
    </contour>
  </outline>
</glyph>
<glyph name="s" format="2">
  <advance width="556"/>
  <unicode hex="0073"/>
  <anchor x="279" y="0" name="bottom"/>
  <anchor x="279" y="546" name="top"/>
  <outline>
    <contour>
      <point x="273" y="-9" type="curve" smooth="yes"/>
      <point x="426" y="-9"/>
      <point x="484" y="36"/>
      <point x="484" y="157" type="curve" smooth="yes"/>
      <point x="484" y="259"/>
      <point x="454" y="295"/>
      <point x="360" y="307" type="curve" smooth="yes"/>
      <point x="231" y="323" type="line" smooth="yes"/>
      <point x="183" y="329"/>
      <point x="169" y="344"/>
      <point x="169" y="391" type="curve" smooth="yes"/>
      <point x="169" y="455"/>
      <point x="197" y="474"/>
      <point x="288" y="474" type="curve" smooth="yes"/>
      <point x="343" y="474"/>
      <point x="414" y="468"/>
      <point x="461" y="459" type="curve"/>
      <point x="461" y="538" type="line"/>
      <point x="397" y="549"/>
      <point x="328" y="554"/>
      <point x="282" y="554" type="curve" smooth="yes"/>
      <point x="128" y="554"/>
      <point x="71" y="510"/>
      <point x="72" y="392" type="curve" smooth="yes"/>
      <point x="71" y="294"/>
      <point x="105" y="255"/>
      <point x="194" y="243" type="curve" smooth="yes"/>
      <point x="323" y="228" type="line" smooth="yes"/>
      <point x="373" y="221"/>
      <point x="387" y="206"/>
      <point x="387" y="157" type="curve" smooth="yes"/>
      <point x="387" y="92"/>
      <point x="359" y="72"/>
      <point x="266" y="72" type="curve" smooth="yes"/>
      <point x="206" y="72"/>
      <point x="130" y="78"/>
      <point x="77" y="86" type="curve"/>
      <point x="77" y="8" type="line"/>
      <point x="145" y="-3"/>
      <point x="222" y="-9"/>
    </contour>
  </outline>
</glyph>
<glyph name="t" format="2">
  <advance width="380"/>
  <unicode hex="0074"/>
  <anchor x="200" y="0" name="bottom"/>
  <anchor x="200" y="795" name="top"/>
  <outline>
    <contour>
      <point x="134" y="0" type="line"/>
      <point x="232" y="0" type="line"/>
      <point x="232" y="736" type="line"/>
      <point x="134" y="736" type="line"/>
    </contour>
    <contour>
      <point x="22" y="464" type="line"/>
      <point x="157" y="464" type="line"/>
      <point x="157" y="546" type="line"/>
      <point x="22" y="546" type="line"/>
    </contour>
    <contour>
      <point x="210" y="464" type="line"/>
      <point x="375" y="464" type="line"/>
      <point x="375" y="546" type="line"/>
      <point x="210" y="546" type="line"/>
    </contour>
  </outline>
</glyph>
<glyph name="u" format="2">
  <advance width="694"/>
  <unicode hex="0075"/>
  <anchor x="347" y="0" name="bottom"/>
  <anchor x="625" y="10" name="ogonek"/>
  <anchor x="347" y="510" name="top"/>
  <anchor x="674" y="510" name="topright"/>
  <outline>
    <contour>
      <point x="584" y="546" type="line"/>
      <point x="486" y="546" type="line"/>
      <point x="486" y="269" type="line" smooth="yes"/>
      <point x="486" y="131"/>
      <point x="440" y="74"/>
      <point x="329" y="74" type="curve" smooth="yes"/>
      <point x="236" y="74"/>
      <point x="203" y="115"/>
      <point x="203" y="228" type="curve" smooth="yes"/>
      <point x="203" y="546" type="line"/>
      <point x="105" y="546" type="line"/>
      <point x="105" y="214" type="line" smooth="yes"/>
      <point x="105" y="57"/>
      <point x="162" y="-8"/>
      <point x="301" y="-8" type="curve" smooth="yes"/>
      <point x="397" y="-8"/>
      <point x="460" y="22"/>
      <point x="484" y="79" type="curve"/>
      <point x="489" y="79" type="line"/>
      <point x="498" y="0" type="line"/>
      <point x="584" y="0" type="line"/>
    </contour>
  </outline>
</glyph>
<glyph name="v" format="2">
  <advance width="583"/>
  <unicode hex="0076"/>
  <anchor x="303" y="0" name="bottom"/>
  <anchor x="303" y="546" name="top"/>
  <outline>
    <contour>
      <point x="235" y="0" type="line"/>
      <point x="348" y="0" type="line"/>
      <point x="555" y="546" type="line"/>
      <point x="455" y="546" type="line"/>
      <point x="294" y="98" type="line"/>
      <point x="290" y="98" type="line"/>
      <point x="129" y="546" type="line"/>
      <point x="28" y="546" type="line"/>
    </contour>
  </outline>
</glyph>
<glyph name="w" format="2">
  <advance width="749"/>
  <unicode hex="0077"/>
  <anchor x="328" y="0" name="bottom"/>
  <anchor x="328" y="546" name="top"/>
  <outline>
    <contour>
      <point x="135" y="0" type="line"/>
      <point x="276" y="0" type="line"/>
      <point x="374" y="452" type="line"/>
      <point x="472" y="0" type="line"/>
      <point x="614" y="0" type="line"/>
      <point x="721" y="546" type="line"/>
      <point x="623" y="546" type="line"/>
      <point x="543" y="104" type="line"/>
      <point x="539" y="104" type="line"/>
      <point x="443" y="546" type="line"/>
      <point x="306" y="546" type="line"/>
      <point x="210" y="104" type="line"/>
      <point x="205" y="104" type="line"/>
      <point x="126" y="546" type="line"/>
      <point x="28" y="546" type="line"/>
    </contour>
  </outline>
</glyph>
<glyph name="x" format="2">
  <advance width="549"/>
  <unicode hex="0078"/>
  <anchor x="275" y="0" name="bottom"/>
  <anchor x="275" y="546" name="top"/>
  <outline>
    <contour>
      <point x="410" y="0" type="line"/>
      <point x="527" y="0" type="line"/>
      <point x="137" y="546" type="line"/>
      <point x="22" y="546" type="line"/>
    </contour>
    <contour>
      <point x="22" y="0" type="line"/>
      <point x="138" y="0" type="line"/>
      <point x="527" y="546" type="line"/>
      <point x="410" y="546" type="line"/>
    </contour>
  </outline>
</glyph>
<glyph name="y" format="2">
  <advance width="694"/>
  <unicode hex="0079"/>
  <anchor x="322" y="0" name="bottom"/>
  <anchor x="322" y="510" name="top"/>
  <outline>
    <contour>
      <point x="342" y="-224" type="curve" smooth="yes"/>
      <point x="548" y="-225"/>
      <point x="584" y="-182"/>
      <point x="584" y="53" type="curve" smooth="yes"/>
      <point x="584" y="546" type="line"/>
      <point x="486" y="546" type="line"/>
      <point x="486" y="269" type="line" smooth="yes"/>
      <point x="486" y="131"/>
      <point x="440" y="74"/>
      <point x="329" y="74" type="curve" smooth="yes"/>
      <point x="236" y="74"/>
      <point x="203" y="115"/>
      <point x="203" y="228" type="curve" smooth="yes"/>
      <point x="203" y="546" type="line"/>
      <point x="105" y="546" type="line"/>
      <point x="105" y="214" type="line" smooth="yes"/>
      <point x="105" y="57"/>
      <point x="162" y="-8"/>
      <point x="301" y="-8" type="curve" smooth="yes"/>
      <point x="396" y="-8"/>
      <point x="458" y="22"/>
      <point x="482" y="79" type="curve"/>
      <point x="487" y="79" type="line"/>
      <point x="487" y="32" type="line" smooth="yes"/>
      <point x="487" y="-132"/>
      <point x="477" y="-143"/>
      <point x="342" y="-144" type="curve" smooth="yes"/>
      <point x="263" y="-143"/>
      <point x="198" y="-139"/>
      <point x="136" y="-130" type="curve"/>
      <point x="136" y="-208" type="line"/>
      <point x="213" y="-219"/>
      <point x="278" y="-225"/>
    </contour>
  </outline>
</glyph>
<glyph name="z" format="2">
  <advance width="505"/>
  <unicode hex="007A"/>
  <anchor x="270" y="0" name="bottom"/>
  <anchor x="263" y="273" name="center"/>
  <anchor x="270" y="546" name="top"/>
  <outline>
    <contour>
      <point x="28" y="0" type="line"/>
      <point x="477" y="0" type="line"/>
      <point x="477" y="82" type="line"/>
      <point x="158" y="82" type="line"/>
      <point x="158" y="86" type="line"/>
      <point x="475" y="472" type="line"/>
      <point x="475" y="546" type="line"/>
      <point x="41" y="546" type="line"/>
      <point x="41" y="464" type="line"/>
      <point x="345" y="464" type="line"/>
      <point x="345" y="459" type="line"/>
      <point x="28" y="74" type="line"/>
    </contour>
  </outline>
</glyph>
<glyph name="exclamdown" format="2">
  <advance width="242.56522"/>
  <unicode hex="00A1"/>
  <outline>
    <contour>
      <point x="74.022" y="-178" type="line"/>
      <point x="168.543" y="-178" type="line"/>
      <point x="168.543" y="-75.565" type="line" smooth="yes"/>
      <point x="168.543" y="-5.348"/>
      <point x="160.022" y="170.891"/>
      <point x="152.674" y="312.543" type="curve"/>
      <point x="89.891" y="312.543" type="line"/>
      <point x="82.543" y="170.891"/>
      <point x="74.022" y="-5.348"/>
      <point x="74.022" y="-75.565" type="curve" smooth="yes"/>
    </contour>
    <contour>
      <point x="73.913" y="412.391" type="line"/>
      <point x="168.652" y="412.391" type="line"/>
      <point x="168.652" y="510" type="line"/>
      <point x="73.913" y="510" type="line"/>
    </contour>
  </outline>
</glyph>
<glyph name="currency" format="2">
  <advance width="717.34783"/>
  <unicode hex="00A4"/>
  <outline>
    <contour>
      <point x="111.13" y="-8.848" type="line"/>
      <point x="211.652" y="91.674" type="line"/>
      <point x="243.196" y="74.826"/>
      <point x="289.848" y="69"/>
      <point x="358.174" y="69" type="curve" smooth="yes"/>
      <point x="426.043" y="69"/>
      <point x="472.696" y="74.826"/>
      <point x="504.696" y="91.217" type="curve"/>
      <point x="605.761" y="-9.848" type="line"/>
      <point x="652.674" y="37.065" type="line"/>
      <point x="555.5" y="134.239" type="line"/>
      <point x="578.87" y="175.783"/>
      <point x="581.87" y="242.696"/>
      <point x="581.87" y="344.087" type="curve" smooth="yes"/>
      <point x="581.87" y="445.478"/>
      <point x="578.87" y="511.304"/>
      <point x="556.043" y="553.848" type="curve"/>
      <point x="652.217" y="650.022" type="line"/>
      <point x="605.761" y="696.478" type="line"/>
      <point x="505.152" y="595.87" type="line"/>
      <point x="473.609" y="613.174"/>
      <point x="426.957" y="619"/>
      <point x="358.174" y="619" type="curve" smooth="yes"/>
      <point x="289.848" y="619"/>
      <point x="243.196" y="613.174"/>
      <point x="211.196" y="596.326" type="curve"/>
      <point x="111.587" y="695.935" type="line"/>
      <point x="64.674" y="649.022" type="line"/>
      <point x="160.304" y="553.391" type="line"/>
      <point x="137.478" y="511.304"/>
      <point x="134.478" y="445.478"/>
      <point x="134.478" y="344.087" type="curve" smooth="yes"/>
      <point x="134.478" y="242.239"/>
      <point x="137.478" y="175.326"/>
      <point x="161.304" y="134.239" type="curve"/>
      <point x="64.674" y="37.609" type="line"/>
    </contour>
    <contour>
      <point x="358.174" y="137.957" type="curve" smooth="yes"/>
      <point x="216.217" y="137.957"/>
      <point x="216.217" y="165.717"/>
      <point x="216.217" y="344.087" type="curve" smooth="yes"/>
      <point x="216.217" y="522.457"/>
      <point x="216.217" y="550.043"/>
      <point x="358.174" y="550.043" type="curve" smooth="yes"/>
      <point x="500.13" y="550.043"/>
      <point x="500.13" y="522.457"/>
      <point x="500.13" y="344.087" type="curve" smooth="yes"/>
      <point x="500.13" y="165.717"/>
      <point x="500.13" y="137.957"/>
    </contour>
  </outline>
</glyph>
<glyph name="Eth" format="2">
  <advance width="688.65217"/>
  <unicode hex="00D0"/>
  <outline>
    <contour>
      <point x="99.783" y="0" type="line"/>
      <point x="318.37" y="0" type="line" smooth="yes"/>
      <point x="598.5" y="0"/>
      <point x="611.696" y="52.13"/>
      <point x="611.696" y="344" type="curve" smooth="yes"/>
      <point x="611.696" y="635.87"/>
      <point x="598.5" y="688"/>
      <point x="318.37" y="688" type="curve" smooth="yes"/>
      <point x="99.783" y="688" type="line"/>
      <point x="99.783" y="383.304" type="line"/>
      <point x="31.413" y="383.304" type="line"/>
      <point x="31.413" y="313.609" type="line"/>
      <point x="99.783" y="313.609" type="line"/>
    </contour>
    <contour>
      <point x="185.783" y="74.217" type="line"/>
      <point x="185.783" y="313.609" type="line"/>
      <point x="295.761" y="313.609" type="line"/>
      <point x="295.761" y="383.304" type="line"/>
      <point x="185.783" y="383.304" type="line"/>
      <point x="185.783" y="613.783" type="line"/>
      <point x="304.348" y="613.783" type="line" smooth="yes"/>
      <point x="512.043" y="613.783"/>
      <point x="525.696" y="609.957"/>
      <point x="525.696" y="344" type="curve" smooth="yes"/>
      <point x="525.696" y="77.5"/>
      <point x="514.957" y="74.217"/>
      <point x="304.348" y="74.217" type="curve" smooth="yes"/>
    </contour>
  </outline>
</glyph>
<glyph name="Thorn" format="2">
  <advance width="651.73913"/>
  <unicode hex="00DE"/>
  <anchor x="326.37" y="0" name="bottom"/>
  <anchor x="326.37" y="688" name="top"/>
  <outline>
    <contour>
      <point x="99.783" y="0" type="line"/>
      <point x="185.783" y="0" type="line"/>
      <point x="185.783" y="133.217" type="line"/>
      <point x="399.196" y="133.217" type="line"/>
      <point x="577.283" y="133.217"/>
      <point x="598.696" y="231.13"/>
      <point x="598.696" y="350.543" type="curve" smooth="yes"/>
      <point x="598.696" y="474.848"/>
      <point x="576.478" y="567.87"/>
      <point x="401.37" y="567.87" type="curve" smooth="yes"/>
      <point x="185.783" y="567.87" type="line"/>
      <point x="185.783" y="688" type="line"/>
      <point x="99.783" y="688" type="line"/>
    </contour>
    <contour>
      <point x="185.783" y="207.435" type="line"/>
      <point x="185.783" y="493.652" type="line"/>
      <point x="372.739" y="493.652" type="line" smooth="yes"/>
      <point x="504.609" y="493.652"/>
      <point x="512.696" y="450.565"/>
      <point x="512.696" y="350.543" type="curve" smooth="yes"/>
      <point x="512.696" y="250.522"/>
      <point x="502.696" y="207.435"/>
      <point x="370.565" y="207.435" type="curve" smooth="yes"/>
    </contour>
  </outline>
</glyph>
<glyph name="divide" format="2">
  <advance width="540"/>
  <unicode hex="00F7"/>
  <outline>
    <contour>
      <point x="70" y="219.609" type="line"/>
      <point x="470" y="219.609" type="line"/>
      <point x="470" y="285.848" type="line"/>
      <point x="70" y="285.848" type="line"/>
    </contour>
    <contour>
      <point x="233.87" y="26.022" type="line"/>
      <point x="305.587" y="26.022" type="line"/>
      <point x="305.587" y="103.87" type="line"/>
      <point x="233.87" y="103.87" type="line"/>
    </contour>
    <contour>
      <point x="233.87" y="401.587" type="line"/>
      <point x="305.587" y="401.587" type="line"/>
      <point x="305.587" y="478.891" type="line"/>
      <point x="233.87" y="478.891" type="line"/>
    </contour>
  </outline>
</glyph>
<glyph name="dcroat" format="2">
  <advance width="590.02174"/>
  <unicode hex="0111"/>
  <outline>
    <contour>
      <point x="286.087" y="632.63" type="line"/>
      <point x="570.435" y="632.63" type="line"/>
      <point x="570.435" y="688" type="line"/>
      <point x="286.087" y="688" type="line"/>
    </contour>
    <component base="d"/>
  </outline>
</glyph>
<glyph name="idotless" format="2">
  <advance width="316"/>
  <unicode hex="0131"/>
  <anchor x="158" y="0" name="bottom"/>
  <anchor x="206" y="0" name="ogonek"/>
  <anchor x="158" y="550" name="top"/>
  <outline>
    <contour>
      <point x="110" y="0" type="line"/>
      <point x="206" y="0" type="line"/>
      <point x="206" y="550" type="line"/>
      <point x="110" y="550" type="line"/>
    </contour>
  </outline>
</glyph>
<glyph name="longs" format="2">
  <advance width="343.13043"/>
  <unicode hex="017F"/>
  <anchor x="170.674" y="0" name="bottom"/>
  <anchor x="170.674" y="688" name="top"/>
  <outline>
    <contour>
      <point x="129.848" y="0" type="line"/>
      <point x="211.043" y="0" type="line"/>
      <point x="211.043" y="604.913" type="line" smooth="yes"/>
      <point x="211.043" y="668.739"/>
      <point x="233.435" y="679.848"/>
      <point x="342.696" y="679.848" type="curve"/>
      <point x="342.696" y="742.457" type="line"/>
      <point x="186.043" y="742.457"/>
      <point x="129.848" y="733.174"/>
      <point x="129.848" y="590.761" type="curve" smooth="yes"/>
      <point x="129.848" y="510" type="line"/>
      <point x="26.196" y="510" type="line"/>
      <point x="26.196" y="441.043" type="line"/>
      <point x="129.848" y="441.043" type="line"/>
    </contour>
  </outline>
</glyph>
<glyph name="jdotless" format="2">
  <advance width="318"/>
  <unicode hex="0237"/>
  <anchor x="159" y="-200" name="bottom"/>
  <anchor x="159" y="510" name="top"/>
  <outline>
    <contour>
      <point x="208" y="546" type="line"/>
      <point x="110" y="546" type="line"/>
      <point x="110" y="-37" type="line" smooth="yes"/>
      <point x="110" y="-105"/>
      <point x="87" y="-118"/>
      <point x="-33" y="-118" type="curve"/>
      <point x="-33" y="-200" type="line"/>
      <point x="155" y="-200"/>
      <point x="208" y="-163"/>
      <point x="208" y="-29" type="curve" smooth="yes"/>
    </contour>
  </outline>
</glyph>
<glyph name="strokeshortcomb" format="2">
  <advance width="264.34783"/>
  <unicode hex="0335"/>
  <anchor x="132.674" y="348.457" name="_center"/>
  <outline>
    <contour>
      <point x="0" y="313.609" type="line"/>
      <point x="264.348" y="313.609" type="line"/>
      <point x="264.348" y="383.304" type="line"/>
      <point x="0" y="383.304" type="line"/>
    </contour>
  </outline>
</glyph>
<glyph name="C.001" format="2">
  <advance width="661"/>
  <anchor x="311" y="0" name="bottom"/>
  <anchor x="311" y="688" name="top"/>
  <outline>
    <contour>
      <point x="381" y="-8" type="curve" smooth="yes"/>
      <point x="443" y="-8"/>
      <point x="515" y="-3"/>
      <point x="561" y="6" type="curve"/>
      <point x="561" y="88" type="line"/>
      <point x="520" y="81"/>
      <point x="454" y="77"/>
      <point x="387" y="77" type="curve" smooth="yes"/>
      <point x="196" y="77"/>
      <point x="183" y="94"/>
      <point x="183" y="310" type="curve" smooth="yes"/>
      <point x="183" y="378" type="line" smooth="yes"/>
      <point x="183" y="593"/>
      <point x="197" y="611"/>
      <point x="387" y="611" type="curve" smooth="yes"/>
      <point x="449" y="611"/>
      <point x="507" y="607"/>
      <point x="557" y="600" type="curve"/>
      <point x="557" y="679" type="line"/>
      <point x="514" y="689"/>
      <point x="441" y="696"/>
      <point x="381" y="696" type="curve" smooth="yes"/>
      <point x="131" y="696"/>
      <point x="87" y="641"/>
      <point x="87" y="350" type="curve" smooth="yes"/>
      <point x="87" y="338" type="line" smooth="yes"/>
      <point x="87" y="47"/>
      <point x="130" y="-8"/>
    </contour>
  </outline>
</glyph>
<glyph name="M.001" format="2">
  <advance width="826"/>
  <anchor x="413" y="0" name="bottom"/>
  <anchor x="413" y="688" name="top"/>
  <outline>
    <contour>
      <point x="100" y="0" type="line"/>
      <point x="182" y="0" type="line"/>
      <point x="182" y="560" type="line"/>
      <point x="186" y="560" type="line"/>
      <point x="385" y="0" type="line"/>
      <point x="441" y="0" type="line"/>
      <point x="640" y="560" type="line"/>
      <point x="644" y="560" type="line"/>
      <point x="644" y="0" type="line"/>
      <point x="726" y="0" type="line"/>
      <point x="726" y="688" type="line"/>
      <point x="609" y="688" type="line"/>
      <point x="415" y="141" type="line"/>
      <point x="411" y="141" type="line"/>
      <point x="217" y="688" type="line"/>
      <point x="100" y="688" type="line"/>
    </contour>
  </outline>
</glyph>
<glyph name="a.001" format="2">
  <advance width="595"/>
  <anchor x="297" y="0" name="bottom"/>
  <anchor x="531" y="10" name="ogonek"/>
  <anchor x="297" y="510" name="top"/>
  <outline>
    <contour>
      <point x="250" y="-8" type="curve" smooth="yes"/>
      <point x="339" y="-8"/>
      <point x="389" y="17"/>
      <point x="412" y="73" type="curve"/>
      <point x="416" y="73" type="line"/>
      <point x="425" y="0" type="line"/>
      <point x="495" y="0" type="line"/>
      <point x="495" y="259" type="line" smooth="yes"/>
      <point x="495" y="479"/>
      <point x="463" y="518"/>
      <point x="280" y="518" type="curve" smooth="yes"/>
      <point x="222" y="518"/>
      <point x="162" y="513"/>
      <point x="93" y="503" type="curve"/>
      <point x="93" y="435" type="line"/>
      <point x="150" y="444"/>
      <point x="209" y="448"/>
      <point x="280" y="448" type="curve" smooth="yes"/>
      <point x="404" y="448"/>
      <point x="413" y="436"/>
      <point x="413" y="279" type="curve" smooth="yes"/>
      <point x="413" y="244" type="line" smooth="yes"/>
      <point x="413" y="102"/>
      <point x="380" y="62"/>
      <point x="262" y="62" type="curve" smooth="yes"/>
      <point x="171" y="62"/>
      <point x="149" y="79"/>
      <point x="149" y="149" type="curve" smooth="yes"/>
      <point x="149" y="219"/>
      <point x="171" y="235"/>
      <point x="262" y="235" type="curve" smooth="yes"/>
      <point x="437" y="235" type="line"/>
      <point x="437" y="305" type="line"/>
      <point x="250" y="305" type="line" smooth="yes"/>
      <point x="114" y="305"/>
      <point x="67" y="265"/>
      <point x="67" y="149" type="curve" smooth="yes"/>
      <point x="67" y="33"/>
      <point x="114" y="-8"/>
    </contour>
  </outline>
</glyph>
<glyph name="c.002" format="2">
  <advance width="511"/>
  <anchor x="236" y="0" name="bottom"/>
  <anchor x="236" y="510" name="top"/>
  <outline>
    <contour>
      <point x="313" y="-9" type="curve" smooth="yes"/>
      <point x="368" y="-9"/>
      <point x="432" y="-2"/>
      <point x="469" y="7" type="curve"/>
      <point x="469" y="86" type="line"/>
      <point x="428" y="77"/>
      <point x="362" y="71"/>
      <point x="311" y="71" type="curve" smooth="yes"/>
      <point x="199" y="71"/>
      <point x="167" y="111"/>
      <point x="168" y="248" type="curve" smooth="yes"/>
      <point x="168" y="298" type="line" smooth="yes"/>
      <point x="167" y="433"/>
      <point x="199" y="472"/>
      <point x="311" y="474" type="curve" smooth="yes"/>
      <point x="361" y="475"/>
      <point x="424" y="470"/>
      <point x="464" y="459" type="curve"/>
      <point x="464" y="537" type="line"/>
      <point x="428" y="548"/>
      <point x="366" y="554"/>
      <point x="313" y="554" type="curve" smooth="yes"/>
      <point x="133" y="554"/>
      <point x="70" y="482"/>
      <point x="70" y="277" type="curve" smooth="yes"/>
      <point x="70" y="269" type="line" smooth="yes"/>
      <point x="70" y="63"/>
      <point x="133" y="-9"/>
    </contour>
  </outline>
</glyph>
<glyph name="c.003" format="2">
  <advance width="522"/>
  <anchor x="259" y="0" name="bottom"/>
  <anchor x="259" y="546" name="top"/>
  <outline>
    <contour>
      <point x="320" y="-9" type="curve" smooth="yes"/>
      <point x="375" y="-9"/>
      <point x="438" y="-2"/>
      <point x="476" y="7" type="curve"/>
      <point x="476" y="87" type="line"/>
      <point x="436" y="79"/>
      <point x="370" y="74"/>
      <point x="318" y="73" type="curve" smooth="yes"/>
      <point x="205" y="74"/>
      <point x="174" y="112"/>
      <point x="174" y="248" type="curve" smooth="yes"/>
      <point x="174" y="298" type="line" smooth="yes"/>
      <point x="174" y="434"/>
      <point x="205" y="472"/>
      <point x="318" y="472" type="curve" smooth="yes"/>
      <point x="368" y="472"/>
      <point x="432" y="467"/>
      <point x="471" y="458" type="curve"/>
      <point x="471" y="538" type="line"/>
      <point x="434" y="548"/>
      <point x="373" y="554"/>
      <point x="320" y="554" type="curve" smooth="yes"/>
      <point x="134" y="554"/>
      <point x="77" y="489"/>
      <point x="77" y="277" type="curve" smooth="yes"/>
      <point x="77" y="269" type="line" smooth="yes"/>
      <point x="77" y="56"/>
      <point x="134" y="-9"/>
    </contour>
  </outline>
</glyph>
<glyph name="dblgravecomb.case" format="2">
  <advance width="347.30435"/>
  <anchor x="205.435" y="510" name="_top"/>
  <anchor x="207.435" y="688" name="top"/>
  <outline>
    <contour>
      <point x="347.304" y="594.587" type="line"/>
      <point x="347.304" y="599.587" type="line"/>
      <point x="258.478" y="717.478" type="line"/>
      <point x="181.5" y="717.478" type="line"/>
      <point x="181.5" y="712.478" type="line"/>
      <point x="294.761" y="594.587" type="line"/>
    </contour>
    <contour>
      <point x="166.348" y="594.587" type="line"/>
      <point x="166.348" y="599.587" type="line"/>
      <point x="77.522" y="717.478" type="line"/>
      <point x="0" y="717.478" type="line"/>
      <point x="0" y="712.478" type="line"/>
      <point x="113.804" y="594.587" type="line"/>
    </contour>
  </outline>
</glyph>
<glyph name="downArrow.ss01" format="2">
  <advance width="345"/>
  <outline>
    <contour>
      <point x="173" y="171" type="line"/>
      <point x="315" y="456" type="line"/>
      <point x="30" y="456" type="line"/>
    </contour>
  </outline>
</glyph>
<glyph name="e.001" format="2">
  <advance width="633"/>
  <anchor x="317" y="0" name="bottom"/>
  <anchor x="564" y="11" name="ogonek"/>
  <anchor x="317" y="542" name="top"/>
  <outline>
    <contour>
      <point x="324" y="-8" type="curve" smooth="yes"/>
      <point x="402" y="-8"/>
      <point x="493" y="0"/>
      <point x="545" y="13" type="curve"/>
      <point x="545" y="90" type="line"/>
      <point x="487" y="79"/>
      <point x="399" y="72"/>
      <point x="330" y="72" type="curve" smooth="yes"/>
      <point x="189" y="72"/>
      <point x="177" y="84"/>
      <point x="177" y="246" type="curve" smooth="yes"/>
      <point x="177" y="296" type="line" smooth="yes"/>
      <point x="177" y="457"/>
      <point x="189" y="470"/>
      <point x="324" y="470" type="curve" smooth="yes"/>
      <point x="454" y="470"/>
      <point x="466" y="458"/>
      <point x="466" y="296" type="curve" smooth="yes"/>
      <point x="466" y="264" type="line"/>
      <point x="501" y="304" type="line"/>
      <point x="130" y="304" type="line"/>
      <point x="130" y="228" type="line"/>
      <point x="560" y="228" type="line"/>
      <point x="560" y="275" type="line" smooth="yes"/>
      <point x="560" y="509"/>
      <point x="524" y="550"/>
      <point x="324" y="550" type="curve" smooth="yes"/>
      <point x="118" y="550"/>
      <point x="81" y="509"/>
      <point x="81" y="275" type="curve" smooth="yes"/>
      <point x="81" y="267" type="line" smooth="yes"/>
      <point x="81" y="33"/>
      <point x="118" y="-8"/>
    </contour>
  </outline>
</glyph>
<glyph name="eight.numr" format="2">
  <advance width="395.73913"/>
  <outline>
    <contour>
      <point x="197.37" y="304" type="curve" smooth="yes"/>
      <point x="326.457" y="304"/>
      <point x="353.087" y="338.63"/>
      <point x="353.087" y="408.543" type="curve" smooth="yes"/>
      <point x="353.087" y="472.457"/>
      <point x="328.63" y="489.543"/>
      <point x="280.717" y="499.543" type="curve"/>
      <point x="280.717" y="501.543" type="line"/>
      <point x="328.087" y="510.087"/>
      <point x="349.087" y="536.087"/>
      <point x="349.087" y="591.087" type="curve" smooth="yes"/>
      <point x="349.087" y="661"/>
      <point x="315" y="690.087"/>
      <point x="197.37" y="690.087" type="curve" smooth="yes"/>
      <point x="80.283" y="690.087"/>
      <point x="45.652" y="661"/>
      <point x="45.652" y="591.087" type="curve" smooth="yes"/>
      <point x="45.652" y="536.087"/>
      <point x="67.652" y="510.087"/>
      <point x="114.565" y="501.543" type="curve"/>
      <point x="114.565" y="499.543" type="line"/>
      <point x="67.652" y="489.543"/>
      <point x="42.652" y="472.457"/>
      <point x="42.652" y="408.543" type="curve" smooth="yes"/>
      <point x="42.652" y="338.63"/>
      <point x="68.826" y="304"/>
    </contour>
    <contour>
      <point x="197.913" y="351.674" type="curve" smooth="yes"/>
      <point x="125.13" y="351.674"/>
      <point x="103.565" y="360.5"/>
      <point x="103.565" y="413.348" type="curve" smooth="yes"/>
      <point x="103.565" y="468.196"/>
      <point x="121.217" y="476.565"/>
      <point x="197.913" y="476.565" type="curve" smooth="yes"/>
      <point x="274.065" y="476.565"/>
      <point x="292.174" y="468.196"/>
      <point x="292.174" y="413.348" type="curve" smooth="yes"/>
      <point x="292.174" y="360.5"/>
      <point x="271.152" y="351.674"/>
    </contour>
    <contour>
      <point x="197.913" y="521.522" type="curve" smooth="yes"/>
      <point x="124.13" y="521.522"/>
      <point x="106.565" y="532.261"/>
      <point x="106.565" y="581.196" type="curve" smooth="yes"/>
      <point x="106.565" y="630.674"/>
      <point x="122.217" y="642.413"/>
      <point x="197.913" y="642.413" type="curve" smooth="yes"/>
      <point x="273.065" y="642.413"/>
      <point x="288.717" y="630.674"/>
      <point x="288.717" y="581.196" type="curve" smooth="yes"/>
      <point x="288.717" y="532.261"/>
      <point x="271.609" y="521.522"/>
    </contour>
  </outline>
</glyph>
<glyph name="four.tosf" format="2">
  <advance width="620"/>
  <outline>
    <contour>
      <point x="393.935" y="0" type="line"/>
      <point x="476.217" y="0" type="line"/>
      <point x="476.217" y="134.957" type="line"/>
      <point x="566.609" y="134.957" type="line"/>
      <point x="566.609" y="202.739" type="line"/>
      <point x="476.217" y="202.739" type="line"/>
      <point x="476.217" y="406" type="line"/>
      <point x="412.413" y="406" type="line"/>
      <point x="395.022" y="202.739" type="line"/>
      <point x="158.13" y="202.739" type="line"/>
      <point x="398.63" y="585" type="line"/>
      <point x="307.63" y="585" type="line"/>
      <point x="67.674" y="195.935" type="line"/>
      <point x="67.674" y="134.957" type="line"/>
      <point x="393.935" y="134.957" type="line"/>
    </contour>
  </outline>
</glyph>
<glyph name="n.001" format="2">
  <advance width="689"/>
  <anchor x="345" y="0" name="bottom"/>
  <anchor x="345" y="542" name="top"/>
  <outline>
    <contour>
      <point x="109" y="0" type="line"/>
      <point x="205" y="0" type="line"/>
      <point x="205" y="285" type="line" smooth="yes"/>
      <point x="205" y="425"/>
      <point x="245" y="470"/>
      <point x="369" y="470" type="curve" smooth="yes"/>
      <point x="460" y="470"/>
      <point x="489" y="434"/>
      <point x="489" y="323" type="curve" smooth="yes"/>
      <point x="489" y="0" type="line"/>
      <point x="585" y="0" type="line"/>
      <point x="585" y="341" type="line" smooth="yes"/>
      <point x="585" y="492"/>
      <point x="533" y="550"/>
      <point x="398" y="550" type="curve" smooth="yes"/>
      <point x="291" y="550"/>
      <point x="231" y="523"/>
      <point x="204" y="464" type="curve"/>
      <point x="200" y="464" type="line"/>
      <point x="190" y="542" type="line"/>
      <point x="109" y="542" type="line"/>
    </contour>
  </outline>
</glyph>
<glyph name="nine.numr" format="2">
  <advance width="378"/>
  <outline>
    <contour>
      <point x="172.63" y="304" type="curve" smooth="yes"/>
      <point x="257.543" y="304"/>
      <point x="301.543" y="318.087"/>
      <point x="319.717" y="370.913" type="curve" smooth="yes"/>
      <point x="330.804" y="403.283"/>
      <point x="333.891" y="443.826"/>
      <point x="333.891" y="499.457" type="curve" smooth="yes"/>
      <point x="333.891" y="555.37"/>
      <point x="332.348" y="594.37"/>
      <point x="323.348" y="624.913" type="curve" smooth="yes"/>
      <point x="306.348" y="683"/>
      <point x="262.348" y="690.087"/>
      <point x="177.174" y="690.087" type="curve" smooth="yes"/>
      <point x="55.543" y="690.087"/>
      <point x="31.913" y="660.739"/>
      <point x="31.913" y="563.826" type="curve" smooth="yes"/>
      <point x="31.913" y="469.739"/>
      <point x="71.087" y="456.109"/>
      <point x="163.022" y="456.109" type="curve" smooth="yes"/>
      <point x="235.326" y="456.109"/>
      <point x="258.609" y="471.196"/>
      <point x="269.978" y="482.565" type="curve"/>
      <point x="272.978" y="482.565" type="line"/>
      <point x="272.978" y="370.5"/>
      <point x="261.065" y="352.761"/>
      <point x="160.826" y="352.761" type="curve" smooth="yes"/>
      <point x="134.543" y="352.761"/>
      <point x="90.63" y="355.761"/>
      <point x="53.457" y="359.761" type="curve"/>
      <point x="53.457" y="314.087" type="line"/>
      <point x="91.457" y="307.543"/>
      <point x="142.087" y="304"/>
    </contour>
    <contour>
      <point x="181.087" y="504.326" type="curve" smooth="yes"/>
      <point x="104.935" y="504.326"/>
      <point x="90.652" y="509.326"/>
      <point x="90.652" y="574.826" type="curve" smooth="yes"/>
      <point x="90.652" y="637.413"/>
      <point x="107.848" y="640.87"/>
      <point x="181.087" y="640.87" type="curve" smooth="yes"/>
      <point x="251.783" y="640.87"/>
      <point x="271.435" y="635.043"/>
      <point x="271.435" y="562.63" type="curve" smooth="yes"/>
      <point x="271.435" y="518.152"/>
      <point x="263.609" y="504.326"/>
    </contour>
  </outline>
</glyph>
<glyph name="o.002" format="2">
  <advance width="654"/>
  <anchor x="327" y="0" name="bottom"/>
  <anchor x="327" y="273" name="center"/>
  <anchor x="578" y="11" name="ogonek"/>
  <anchor x="327" y="546" name="top"/>
  <anchor x="620" y="546" name="topright"/>
  <outline>
    <contour>
      <point x="327" y="-9" type="curve" smooth="yes"/>
      <point x="517" y="-9"/>
      <point x="577" y="58"/>
      <point x="577" y="269" type="curve" smooth="yes"/>
      <point x="577" y="277" type="line" smooth="yes"/>
      <point x="577" y="488"/>
      <point x="517" y="554"/>
      <point x="327" y="554" type="curve" smooth="yes"/>
      <point x="137" y="554"/>
      <point x="77" y="488"/>
      <point x="77" y="277" type="curve" smooth="yes"/>
      <point x="77" y="269" type="line" smooth="yes"/>
      <point x="77" y="58"/>
      <point x="137" y="-9"/>
    </contour>
    <contour>
      <point x="327" y="73" type="curve" smooth="yes"/>
      <point x="196" y="74"/>
      <point x="175" y="98"/>
      <point x="175" y="248" type="curve" smooth="yes"/>
      <point x="175" y="297" type="line" smooth="yes"/>
      <point x="175" y="448"/>
      <point x="196" y="472"/>
      <point x="327" y="472" type="curve" smooth="yes"/>
      <point x="458" y="472"/>
      <point x="479" y="448"/>
      <point x="479" y="297" type="curve" smooth="yes"/>
      <point x="479" y="248" type="line" smooth="yes"/>
      <point x="479" y="98"/>
      <point x="458" y="74"/>
    </contour>
  </outline>
</glyph>
<glyph name="orn.022" format="2">
  <advance width="389"/>
  <outline>
    <contour>
      <point x="171" y="220" type="curve" smooth="yes"/>
      <point x="269" y="220"/>
      <point x="349" y="303"/>
      <point x="349" y="343" type="curve" smooth="yes"/>
      <point x="349" y="383"/>
      <point x="269" y="466"/>
      <point x="171" y="466" type="curve" smooth="yes"/>
      <point x="90" y="466"/>
      <point x="48" y="411"/>
      <point x="48" y="343" type="curve" smooth="yes"/>
      <point x="48" y="275"/>
      <point x="90" y="220"/>
    </contour>
  </outline>
</glyph>
<glyph name="parenleft.ss02" format="2">
  <advance width="397"/>
  <outline>
    <contour>
      <point x="397" y="0" type="curve"/>
      <point x="397" y="696" type="line"/>
      <point x="190" y="696"/>
      <point x="45" y="553"/>
      <point x="45" y="348" type="curve" smooth="yes"/>
      <point x="45" y="144"/>
      <point x="190" y="0"/>
    </contour>
  </outline>
</glyph>
<glyph name="parenright.ss02" format="2">
  <advance width="397"/>
  <outline>
    <contour>
      <point x="0" y="0" type="line"/>
      <point x="207" y="0"/>
      <point x="352" y="144"/>
      <point x="352" y="348" type="curve" smooth="yes"/>
      <point x="352" y="553"/>
      <point x="207" y="696"/>
      <point x="0" y="696" type="curve"/>
    </contour>
  </outline>
</glyph>
<glyph name="s.002" format="2">
  <advance width="569"/>
  <anchor x="285" y="0" name="bottom"/>
  <anchor x="285" y="542" name="top"/>
  <outline>
    <contour>
      <point x="281" y="-8" type="curve" smooth="yes"/>
      <point x="427" y="-8"/>
      <point x="493" y="43"/>
      <point x="493" y="156" type="curve" smooth="yes"/>
      <point x="493" y="246"/>
      <point x="454" y="291"/>
      <point x="368" y="303" type="curve" smooth="yes"/>
      <point x="242" y="320" type="line" smooth="yes"/>
      <point x="190" y="327"/>
      <point x="170" y="347"/>
      <point x="170" y="391" type="curve" smooth="yes"/>
      <point x="170" y="449"/>
      <point x="205" y="471"/>
      <point x="298" y="471" type="curve" smooth="yes"/>
      <point x="363" y="471"/>
      <point x="416" y="467"/>
      <point x="469" y="457" type="curve"/>
      <point x="469" y="534" type="line"/>
      <point x="404" y="545"/>
      <point x="349" y="550"/>
      <point x="292" y="550" type="curve" smooth="yes"/>
      <point x="143" y="550"/>
      <point x="76" y="501"/>
      <point x="76" y="392" type="curve" smooth="yes"/>
      <point x="76" y="303"/>
      <point x="113" y="257"/>
      <point x="196" y="246" type="curve" smooth="yes"/>
      <point x="330" y="228" type="line" smooth="yes"/>
      <point x="380" y="222"/>
      <point x="399" y="202"/>
      <point x="399" y="156" type="curve" smooth="yes"/>
      <point x="399" y="95"/>
      <point x="363" y="71"/>
      <point x="270" y="71" type="curve" smooth="yes"/>
      <point x="202" y="71"/>
      <point x="143" y="75"/>
      <point x="82" y="85" type="curve"/>
      <point x="82" y="8" type="line"/>
      <point x="162" y="-3"/>
      <point x="224" y="-8"/>
    </contour>
  </outline>
</glyph>
<glyph name="two.tosf" format="2">
  <advance width="620"/>
  <outline>
    <contour>
      <point x="100.152" y="0" type="line"/>
      <point x="526.804" y="0" type="line"/>
      <point x="526.804" y="68.87" type="line"/>
      <point x="180.804" y="68.87" type="line"/>
      <point x="180.804" y="108.522" type="line" smooth="yes"/>
      <point x="180.804" y="180.37"/>
      <point x="184.804" y="186.196"/>
      <point x="234.739" y="205.935" type="curve" smooth="yes"/>
      <point x="414.978" y="277.783" type="line" smooth="yes"/>
      <point x="494" y="309.522"/>
      <point x="526.804" y="340.326"/>
      <point x="526.804" y="441.217" type="curve" smooth="yes"/>
      <point x="526.804" y="578.109"/>
      <point x="434.826" y="592"/>
      <point x="318.935" y="592" type="curve" smooth="yes"/>
      <point x="252.022" y="592"/>
      <point x="165.5" y="585.37"/>
      <point x="113.152" y="576.196" type="curve"/>
      <point x="113.152" y="512.5" type="line"/>
      <point x="171.152" y="518.587"/>
      <point x="252.174" y="523.674"/>
      <point x="294.717" y="523.674" type="curve" smooth="yes"/>
      <point x="411.696" y="523.674"/>
      <point x="443.435" y="511.652"/>
      <point x="443.435" y="433.674" type="curve" smooth="yes"/>
      <point x="443.435" y="380.37"/>
      <point x="432.239" y="362.522"/>
      <point x="370.587" y="338.239" type="curve" smooth="yes"/>
      <point x="205.239" y="272.565" type="line" smooth="yes"/>
      <point x="106.043" y="233.283"/>
      <point x="100.152" y="210.609"/>
      <point x="100.152" y="86" type="curve" smooth="yes"/>
    </contour>
  </outline>
</glyph>
<glyph name="v.001" format="2">
  <advance width="598"/>
  <anchor x="300" y="0" name="bottom"/>
  <anchor x="300" y="542" name="top"/>
  <outline>
    <contour>
      <point x="241" y="0" type="line"/>
      <point x="359" y="0" type="line"/>
      <point x="560" y="542" type="line"/>
      <point x="461" y="542" type="line"/>
      <point x="305" y="97" type="line"/>
      <point x="296" y="97" type="line"/>
      <point x="139" y="542" type="line"/>
      <point x="38" y="542" type="line"/>
    </contour>
  </outline>
</glyph>
<glyph name="zero.zero" format="2">
  <advance width="671.1087"/>
  <outline>
    <contour>
      <point x="335.826" y="-8" type="curve" smooth="yes"/>
      <point x="589.152" y="-8"/>
      <point x="594.152" y="48.935"/>
      <point x="594.152" y="344" type="curve" smooth="yes"/>
      <point x="594.152" y="639.065"/>
      <point x="589.152" y="696"/>
      <point x="335.826" y="696" type="curve" smooth="yes"/>
      <point x="81.413" y="696"/>
      <point x="76.413" y="639.065"/>
      <point x="76.413" y="344" type="curve" smooth="yes"/>
      <point x="76.413" y="48.935"/>
      <point x="81.413" y="-8"/>
    </contour>
    <contour>
      <point x="335.826" y="65.674" type="curve" smooth="yes"/>
      <point x="176.217" y="65.674"/>
      <point x="162.413" y="72.043"/>
      <point x="161.87" y="308.891" type="curve"/>
      <point x="508.696" y="308.891" type="line"/>
      <point x="507.696" y="72.043"/>
      <point x="493.891" y="65.674"/>
    </contour>
    <contour>
      <point x="161.87" y="380.391" type="line"/>
      <point x="162.413" y="614.413"/>
      <point x="175.043" y="621.783"/>
      <point x="335.826" y="621.783" type="curve" smooth="yes"/>
      <point x="495.065" y="621.783"/>
      <point x="507.696" y="614.413"/>
      <point x="508.696" y="380.391" type="curve"/>
    </contour>
  </outline>
</glyph>
